<svg xmlns="http://www.w3.org/2000/svg" width="139" height="119" viewBox="0 0 139 119"><defs><style>.a{fill:#e74d4d;}.b,.d{fill:none;}.b{stroke:#e74d4d;stroke-width:2px;}.c{stroke:none;}</style></defs><path class="a" d="M3.5,10V6.5H0v-3H3.5V0h3V3.5H10v3H6.5V10Z" transform="translate(30 32)"/><path class="a" d="M5.6,16V10.4H0V5.6H5.6V0h4.8V5.6H16v4.8H10.4V16Z" transform="translate(89.5 82)"/><circle cx="3" cy="3" r="3" transform="translate(133 112)"/><g class="b"><circle class="c" cx="5" cy="5" r="5"/><circle class="d" cx="5" cy="5" r="4"/></g><g class="b" transform="translate(56 80)"><circle class="c" cx="5" cy="5" r="5"/><circle class="d" cx="5" cy="5" r="4"/></g><g class="b" transform="translate(30 105)"><circle class="c" cx="7" cy="7" r="7"/><circle class="d" cx="7" cy="7" r="6"/></g><circle cx="2" cy="2" r="2" transform="translate(52 67)"/></svg>