<svg xmlns="http://www.w3.org/2000/svg" width="375" height="565.279" viewBox="0 0 375 565.279"><defs><style>.a{fill:#df1111;}</style></defs><path class="a" d="M1367.816,803.245a186.28,186.28,0,0,0,34.269,107.689,5.129,5.129,0,0,0,6.669,1.616,5,5,0,0,0,1.61-7.228,175.981,175.981,0,0,1-32.238-96.572,5.355,5.355,0,0,1,5.357-5.505h0a5.347,5.347,0,0,1,5.34,5.19,167.041,167.041,0,0,0,70.031,130.629,5,5,0,0,0,5.8-8.149,157.02,157.02,0,0,1-65.812-122.155,5.348,5.348,0,0,1,5.355-5.515h1.093a5.356,5.356,0,0,1,5.342,5.188c2.739,77.38,66.495,139.5,144.508,139.591a5.127,5.127,0,0,0,5.157-4.523,5,5,0,0,0-4.978-5.477c-74.318,0-134.779-60.461-134.779-134.779h134.779v-134.5h0c103.554,0,187.5-83.946,187.5-187.5v-98.5h-375v420.5Z" transform="translate(-1367.816 -382.745)"/></svg>