<svg xmlns="http://www.w3.org/2000/svg" width="473.804" height="473.231" viewBox="0 0 473.804 473.231"><defs><style>.a{fill:none;stroke:#e9e9e9;stroke-linecap:round;stroke-miterlimit:10;stroke-width:3px;}</style></defs><g transform="translate(-86.309 241.413) rotate(-45)"><g transform="translate(231.205 453.54)"><line class="a" x2="41.035" transform="translate(0)"/></g><g transform="translate(144.41 439.37)"><line class="a" x2="127.83" transform="translate(0)"/></g><g transform="translate(144.41 425.2)"><line class="a" x2="202.83" transform="translate(0)"/></g><g transform="translate(95.81 411.02)"><line class="a" x2="251.43" transform="translate(0)"/></g><g transform="translate(95.81 396.85)"><line class="a" x2="289.37"/></g><g transform="translate(64.93 382.68)"><line class="a" x2="320.25"/></g><g transform="translate(64.93 368.5)"><line class="a" x2="346.15"/></g><g transform="translate(43.14 354.33)"><line class="a" x2="367.94"/></g><g transform="translate(43.14 340.16)"><line class="a" x2="386.38"/></g><g transform="translate(27.51 325.98)"><line class="a" x2="402.01"/></g><g transform="translate(27.51 311.81)"><line class="a" x2="415.02"/></g><g transform="translate(16.61 297.64)"><line class="a" x2="425.92"/></g><g transform="translate(16.61 283.47)"><line class="a" x2="434.63"/></g><g transform="translate(10.02 269.29)"><line class="a" x2="441.22"/></g><g transform="translate(10.02 255.12)"><line class="a" x2="445.64"/></g><g transform="translate(7.09 240.95)"><line class="a" x2="448.57"/></g><g transform="translate(7.09 226.77)"><line class="a" x2="450"/></g><g transform="translate(8.02 212.6)"><line class="a" x2="449.07"/></g><g transform="translate(8.02 198.43)"><line class="a" x2="446.37"/></g><g transform="translate(12.19 184.25)"><line class="a" x2="442.2"/></g><g transform="translate(12.19 170.08)"><line class="a" x2="436.39"/></g><g transform="translate(20.27 155.91)"><line class="a" x2="428.31"/></g><g transform="translate(20.27 141.73)"><line class="a" x2="417.86"/></g><g transform="translate(33.03 127.56)"><line class="a" x2="405.1"/></g><g transform="translate(33.03 113.39)"><line class="a" x2="390.19"/></g><g transform="translate(50.7 99.21)"><line class="a" x2="372.52"/></g><g transform="translate(50.7 85.04)"><line class="a" x2="351.49"/></g><g transform="translate(75.46 70.87)"><line class="a" x2="326.73"/></g><g transform="translate(75.46 56.69)"><line class="a" x2="297.55"/></g><g transform="translate(111.08 42.52)"><line class="a" x2="261.93" transform="translate(0)"/></g><g transform="translate(111.08 28.35)"><line class="a" x2="216.41" transform="translate(0)"/></g><g transform="translate(176.51 14.17)"><line class="a" x2="150.98" transform="translate(0)"/></g><g transform="translate(176.51 0)"><line class="a" x2="55.58" transform="translate(0)"/></g><path class="a" d="M134.305,874.26a7.09,7.09,0,0,0,0-14.18" transform="translate(193.185 -845.91)"/><path class="a" d="M299.455,860.08a7.085,7.085,0,1,1,0-14.17" transform="translate(-122.945 -845.91)"/><path class="a" d="M364.885,888.43a7.085,7.085,0,1,1,0-14.17" transform="translate(-253.805 -845.91)"/><path class="a" d="M400.5,916.78a7.09,7.09,0,0,1,0-14.18" transform="translate(-325.045 -845.91)"/><path class="a" d="M425.265,945.12a7.085,7.085,0,1,1,0-14.17" transform="translate(-374.565 -845.91)"/><path class="a" d="M442.935,973.47a7.085,7.085,0,1,1,0-14.17" transform="translate(-409.905 -845.91)"/><path class="a" d="M455.7,1001.82a7.09,7.09,0,1,1,0-14.18" transform="translate(-435.425 -845.91)"/><path class="a" d="M463.775,1030.16a7.085,7.085,0,1,1,0-14.17" transform="translate(-451.585 -845.91)"/><path class="a" d="M467.945,1058.51a7.085,7.085,0,1,1,0-14.17" transform="translate(-459.925 -845.91)"/><path class="a" d="M468.875,1086.86a7.09,7.09,0,1,1,0-14.18" transform="translate(-461.785 -845.91)"/><path class="a" d="M465.935,1115.2a7.085,7.085,0,0,1,0-14.17" transform="translate(-455.915 -845.91)"/><path class="a" d="M459.355,1143.55a7.085,7.085,0,1,1,0-14.17" transform="translate(-442.745 -845.91)"/><path class="a" d="M448.455,1171.89a7.085,7.085,0,1,1,0-14.17" transform="translate(-420.945 -845.91)"/><path class="a" d="M432.825,1200.24a7.085,7.085,0,1,1,0-14.17" transform="translate(-389.685 -845.91)"/><path class="a" d="M411.035,1228.59a7.09,7.09,0,1,1,0-14.18" transform="translate(-346.105 -845.91)"/><path class="a" d="M380.155,1256.93a7.085,7.085,0,1,1,0-14.17" transform="translate(-284.345 -845.91)"/><path class="a" d="M331.555,1285.28a7.085,7.085,0,1,1,0-14.17" transform="translate(-187.145 -845.91)"/><path class="a" d="M88.775,902.6a7.085,7.085,0,1,0,0-14.17" transform="translate(284.235 -845.91)"/><path class="a" d="M59.6,930.95a7.085,7.085,0,1,0,0-14.17" transform="translate(342.595 -845.91)"/><path class="a" d="M38.565,959.3a7.09,7.09,0,1,0,0-14.18" transform="translate(384.655 -845.91)"/><path class="a" d="M23.665,987.64a7.085,7.085,0,0,0,0-14.17" transform="translate(414.465 -845.91)"/><path class="a" d="M13.215,1015.99a7.085,7.085,0,0,0,0-14.17" transform="translate(435.365 -845.91)"/><path class="a" d="M7.4,1044.34a7.09,7.09,0,1,0,0-14.18" transform="translate(446.995 -845.91)"/><path class="a" d="M4.7,1072.68a7.085,7.085,0,0,0,0-14.17" transform="translate(452.385 -845.91)"/><path class="a" d="M6.125,1101.03a7.085,7.085,0,1,0,0-14.17" transform="translate(449.535 -845.91)"/><path class="a" d="M10.545,1129.38a7.09,7.09,0,0,0,0-14.18" transform="translate(440.695 -845.91)"/><path class="a" d="M19.265,1157.72a7.085,7.085,0,0,0,0-14.17" transform="translate(423.265 -845.91)"/><path class="a" d="M32.275,1186.07a7.09,7.09,0,0,0,0-14.18" transform="translate(397.245 -845.91)"/><path class="a" d="M50.715,1214.41a7.085,7.085,0,0,0,0-14.17" transform="translate(360.365 -845.91)"/><path class="a" d="M76.605,1242.76a7.085,7.085,0,1,0,0-14.17" transform="translate(308.575 -845.91)"/><path class="a" d="M114.555,1271.11a7.09,7.09,0,0,0,0-14.18" transform="translate(232.685 -845.91)"/><path class="a" d="M189.545,1299.45a7.085,7.085,0,1,0,0-14.17" transform="translate(82.695 -845.91)"/></g></svg>