<svg xmlns="http://www.w3.org/2000/svg" width="158" height="135" viewBox="0 0 158 135"><defs><style>.a{fill:#e9e9e9;}.b{fill:#df1111;}.c,.e,.g{fill:none;}.c{stroke:#df1111;stroke-width:2px;}.d{fill:#df1015;}.e{stroke:#000;stroke-miterlimit:10;stroke-width:4px;}.f{stroke:none;}</style></defs><g transform="translate(-1246 -2206)"><g transform="translate(704 -29)"><circle class="a" cx="60" cy="60" r="60" transform="translate(560 2240)"/><path class="b" d="M-7176.5,10V6.5h-3.5v-3h3.5V0h3V3.5h3.5v3h-3.5V10Z" transform="translate(7860.5 2235)"/><path class="b" d="M-7174.4,16V10.4h-5.6V5.6h5.6V0h4.8V5.6h5.6v4.8h-5.6V16Z" transform="translate(7732.5 2354)"/><circle cx="3" cy="3" r="3" transform="translate(568 2245)"/><g class="c" transform="translate(542 2295)"><circle class="f" cx="5" cy="5" r="5"/><circle class="g" cx="5" cy="5" r="4"/></g><g class="c" transform="translate(686 2305)"><circle class="f" cx="7" cy="7" r="7"/><circle class="g" cx="7" cy="7" r="6"/></g><circle cx="2" cy="2" r="2" transform="translate(678 2350)"/></g><g transform="translate(680.757 2175.068)"><path class="d" d="M642.8,105.96a6.325,6.325,0,1,1-6.33,6.32A6.329,6.329,0,0,1,642.8,105.96Z"/><path d="M668.639,90.831a27.262,27.262,0,0,0-25.842-18.6h-.047a27.261,27.261,0,0,0-25.8,18.6,8.652,8.652,0,0,0-8.707,8.6v.04a8.648,8.648,0,0,0,8.637,8.638h.07a26.63,26.63,0,0,0,1.284,3.16,27.282,27.282,0,0,0,17.044,14.392,8.64,8.64,0,0,0,15.027,0,27.222,27.222,0,0,0,18.328-17.552h.071a8.638,8.638,0,1,0-.015-17.275Zm.071,13.288a4.628,4.628,0,0,1-1.055-.122,1.993,1.993,0,0,0-2.376,1.433,23.229,23.229,0,0,1-16.838,16.6,1.991,1.991,0,0,0-1.355,1.163,4.652,4.652,0,0,1-8.578,0,2,2,0,0,0-1.357-1.163,23,23,0,0,1-6.332-2.629,23.267,23.267,0,0,1-8.989-9.867,22.921,22.921,0,0,1-1.514-4.1A2,2,0,0,0,617.939,104a4.651,4.651,0,1,1,0-9.058,1.994,1.994,0,0,0,2.376-1.433A23.267,23.267,0,0,1,638.94,76.54l-1.884,2.928a6.39,6.39,0,0,0,5.376,9.845c.118,0,.235,0,.354-.01a6.4,6.4,0,0,0,4.636-2.389l2.245-2.807a1.992,1.992,0,1,0-3.111-2.489h0l-2.246,2.808a2.4,2.4,0,0,1-3.577.2,2.421,2.421,0,0,1-.323-3l3.459-5.379a23.265,23.265,0,0,1,21.41,17.267,1.994,1.994,0,0,0,2.376,1.433,4.647,4.647,0,1,1,1.055,9.172Z"/><path d="M655.421,93.156a1.993,1.993,0,0,0-1.993,1.993h0a1.662,1.662,0,0,1-3.316.153,1.993,1.993,0,1,0-3.97.357,5.648,5.648,0,0,0,11.273-.51A1.994,1.994,0,0,0,655.421,93.156Z"/><path d="M639.453,95.66a1.994,1.994,0,0,0-3.971-.357,1.661,1.661,0,0,1-3.315-.153,1.993,1.993,0,1,0-3.987,0h0a5.648,5.648,0,0,0,11.273.51Z"/><path d="M668.046,75.55h1.724l-2.987,2.443a1.993,1.993,0,0,0,1.263,3.536h7.308a1.993,1.993,0,0,0,1.993-1.991h0a1.993,1.993,0,0,0-1.992-1.994h-1.726l2.986-2.444a1.993,1.993,0,0,0-1.262-3.536h-7.308a1.993,1.993,0,0,0-1.993,1.993h0a1.993,1.993,0,0,0,1.993,1.993Z"/><path d="M654.757,64.919h1.724l-2.986,2.444a1.993,1.993,0,0,0,1.262,3.536h7.308a1.993,1.993,0,0,0,1.994-1.992h0a1.994,1.994,0,0,0-1.994-1.994h-1.724l2.987-2.443a1.994,1.994,0,0,0-1.263-3.537h-7.308a1.994,1.994,0,0,0-1.994,1.994h0A1.993,1.993,0,0,0,654.757,64.919Z"/><path class="e" d="M649.13,112.28a6.33,6.33,0,1,1-6.33-6.32A6.331,6.331,0,0,1,649.13,112.28Z"/></g></g></svg>