<svg xmlns="http://www.w3.org/2000/svg" width="158" height="135" viewBox="0 0 158 135"><defs><style>.a{fill:#e9e9e9;}.b{fill:#df1111;}.c,.f{fill:none;}.c{stroke:#df1111;stroke-width:2px;}.d{fill:#df1015;}.e{stroke:none;}</style></defs><g transform="translate(-542 -2206)"><g transform="translate(0 -29)"><circle class="a" cx="60" cy="60" r="60" transform="translate(560 2240)"/><path class="b" d="M-7176.5,10V6.5h-3.5v-3h3.5V0h3V3.5h3.5v3h-3.5V10Z" transform="translate(7860.5 2235)"/><path class="b" d="M-7174.4,16V10.4h-5.6V5.6h5.6V0h4.8V5.6h5.6v4.8h-5.6V16Z" transform="translate(7732.5 2354)"/><circle cx="3" cy="3" r="3" transform="translate(568 2245)"/><g class="c" transform="translate(542 2295)"><circle class="e" cx="5" cy="5" r="5"/><circle class="f" cx="5" cy="5" r="4"/></g><g class="c" transform="translate(686 2305)"><circle class="e" cx="7" cy="7" r="7"/><circle class="f" cx="7" cy="7" r="6"/></g><circle cx="2" cy="2" r="2" transform="translate(678 2350)"/></g><g transform="translate(0 -29)"><g transform="translate(90.28 2195.01)"><path class="d" d="M546.86,102.07a28.76,28.76,0,0,1-16.87,26.27,28.77,28.77,0,0,1-16.88-26.27V88.6a30.107,30.107,0,0,0,11.74-8.21h10.28a30.2,30.2,0,0,0,11.73,8.22Z"/><path d="M551.27,102.07a33.175,33.175,0,0,1-20.43,30.71,2.185,2.185,0,0,1-1.69,0,33.159,33.159,0,0,1-20.43-30.71V87.06a2.217,2.217,0,0,1,1.51-2.1,25.662,25.662,0,0,0,11.9-8.16,2.2,2.2,0,0,1,1.7-.81h12.32a2.188,2.188,0,0,1,1.7.81h.01a25.682,25.682,0,0,0,11.9,8.17,2.195,2.195,0,0,1,1.51,2.09Zm-21.28,26.27a28.76,28.76,0,0,0,16.87-26.27V88.61a30.2,30.2,0,0,1-11.73-8.22H524.85a30.107,30.107,0,0,1-11.74,8.21v13.47A28.77,28.77,0,0,0,529.99,128.34Z"/></g><path d="M-1289.644,343.971a1.76,1.76,0,0,0-2.487,0,1.759,1.759,0,0,0,0,2.487l5.471,5.471a1.753,1.753,0,0,0,1.244.515,1.757,1.757,0,0,0,1.244-.515l10.941-10.942a1.758,1.758,0,0,0,0-2.487,1.759,1.759,0,0,0-2.486,0l-9.7,9.7Z" transform="translate(1903.76 1953.214)"/><path d="M-1251.388,321.36a17.012,17.012,0,0,1-15.083-9.1,2.2,2.2,0,0,0-1.946-1.174h-21.671a2.2,2.2,0,0,0-1.947,1.174,17.017,17.017,0,0,1-15.1,9.1,2.2,2.2,0,0,0-2.2,2.2v22.413a41.816,41.816,0,0,0,8.142,24.882,41.81,41.81,0,0,0,21.274,15.255,2.186,2.186,0,0,0,.663.1,2.183,2.183,0,0,0,.663-.1,41.811,41.811,0,0,0,21.275-15.255,41.823,41.823,0,0,0,8.141-24.882V323.562a2.212,2.212,0,0,0-2.214-2.2Zm-2.187,24.614a37.541,37.541,0,0,1-25.678,35.724,37.54,37.54,0,0,1-25.677-35.724V325.652a21.386,21.386,0,0,0,16.122-10.16h19.111a21.386,21.386,0,0,0,16.122,10.159Z" transform="translate(1899.332 1950.91)"/></g></g></svg>