<svg xmlns="http://www.w3.org/2000/svg" width="158" height="135" viewBox="0 0 158 135"><defs><style>.a{fill:#e9e9e9;}.b{fill:#df1111;}.c,.f{fill:none;}.c{stroke:#df1111;stroke-width:2px;}.d{stroke:rgba(0,0,0,0);stroke-miterlimit:10;}.e{stroke:none;}</style></defs><g transform="translate(-882 -2206)"><g transform="translate(340 -29)"><circle class="a" cx="60" cy="60" r="60" transform="translate(560 2240)"/><path class="b" d="M-7176.5,10V6.5h-3.5v-3h3.5V0h3V3.5h3.5v3h-3.5V10Z" transform="translate(7860.5 2235)"/><path class="b" d="M-7174.4,16V10.4h-5.6V5.6h5.6V0h4.8V5.6h5.6v4.8h-5.6V16Z" transform="translate(7732.5 2354)"/><circle cx="3" cy="3" r="3" transform="translate(568 2245)"/><g class="c" transform="translate(542 2295)"><circle class="e" cx="5" cy="5" r="5"/><circle class="f" cx="5" cy="5" r="4"/></g><g class="c" transform="translate(686 2305)"><circle class="e" cx="7" cy="7" r="7"/><circle class="f" cx="7" cy="7" r="6"/></g><circle cx="2" cy="2" r="2" transform="translate(678 2350)"/></g><g transform="translate(0 -29)"><path class="d" d="M30.49,72.529a11.153,11.153,0,0,1-12.9-5.3,11.152,11.152,0,0,1-9.807-9.917,11.15,11.15,0,0,1-5.37-12.871A11.152,11.152,0,0,1,2.487,30.49a11.15,11.15,0,0,1,5.306-12.9,11.148,11.148,0,0,1,9.914-9.807A11.152,11.152,0,0,1,30.579,2.412a11.152,11.152,0,0,1,13.947.075,11.151,11.151,0,0,1,12.9,5.306,11.148,11.148,0,0,1,9.807,9.915A11.151,11.151,0,0,1,72.6,30.58a11.149,11.149,0,0,1-.077,13.947,11.152,11.152,0,0,1-5.3,12.9,11.152,11.152,0,0,1-9.915,9.807A11.15,11.15,0,0,1,44.437,72.6a11.152,11.152,0,0,1-13.947-.075Zm2.025-3.908a6.895,6.895,0,0,0,9.924.068l1.019-1.038,1.337.573a6.894,6.894,0,0,0,9.154-3.835l.542-1.384,1.485.033a6.892,6.892,0,0,0,7.067-6.971l-.012-1.454,1.35-.538a6.9,6.9,0,0,0,3.761-9.186l-.6-1.362L68.621,42.5a6.895,6.895,0,0,0,.068-9.924l-1.038-1.019.573-1.337a6.9,6.9,0,0,0-3.836-9.154l-1.383-.542.033-1.485a6.892,6.892,0,0,0-6.971-7.067l-1.452.014-.54-1.351a6.9,6.9,0,0,0-9.188-3.761l-1.362.6L42.5,6.394a6.9,6.9,0,0,0-9.926-.068L31.557,7.364,30.22,6.791a6.893,6.893,0,0,0-9.154,3.836l-.543,1.383-1.485-.033a6.9,6.9,0,0,0-7.067,6.971l.014,1.454-1.35.54a6.9,6.9,0,0,0-3.761,9.184l.6,1.362L6.394,32.515a6.895,6.895,0,0,0-.068,9.924l1.038,1.019L6.791,44.8a6.9,6.9,0,0,0,3.835,9.154l1.383.542-.031,1.487a6.841,6.841,0,0,0,2.015,5.043,7,7,0,0,0,4.954,2.022l1.454-.014.54,1.351a6.9,6.9,0,0,0,9.186,3.763l1.362-.6Z" transform="translate(923 2262)"/><g transform="translate(392.086 2163.74)"><path class="b" d="M579.51,137.79a1.122,1.122,0,0,1,.31.94.873.873,0,0,1-.46.95l-.54.27a1.285,1.285,0,0,0-.59,1.72,1.377,1.377,0,0,0,.13.2l.37.49a1.342,1.342,0,0,1,.26.8,1.516,1.516,0,0,1-.45,1.11,1.555,1.555,0,0,1-.91.41l-.63.07a1.289,1.289,0,0,0-1.13,1.42.948.948,0,0,0,.07.29l.21.59a1.075,1.075,0,0,1,.05.4c0,.07-.01.2-.02.28l-1.42.89h-3.32a27.917,27.917,0,0,1-8.86-1.04c-.39-.14-.74-.29-1.05-.43l-.08-.03a5.85,5.85,0,0,0-2.45-.69h-2.21a1.642,1.642,0,0,1-1.08-.23,1.3,1.3,0,0,1-.22-.94V135.24a1.12,1.12,0,0,1,1.08-1.31h.4a5.455,5.455,0,0,0,3.74-1.05l.22-.19.54-.96a8.855,8.855,0,0,1,.98-1.38,7.873,7.873,0,0,1,1.91-1.49,5.9,5.9,0,0,0,2.6-2.63,14.784,14.784,0,0,0,1.4-3.18,4.265,4.265,0,0,0,.14-1.28l-.21.01.21-.07c0-.01-.03-.72.4-.89h.57a2.287,2.287,0,0,1,1.04.37c.19.14.76.55.76,2.02a14.967,14.967,0,0,1-1.15,5.83l-.9,2.17,9.44,1.18.1.01a1.469,1.469,0,0,1,1.28,1.6,1.94,1.94,0,0,1-.53,1.25l-.37.36a1.292,1.292,0,0,0,0,1.82.01.01,0,0,1,.01.01Z"/><path d="M557.02,130.36a3.552,3.552,0,0,0,.8-.03l.58-.41a12.186,12.186,0,0,1,1.42-1.97,11.374,11.374,0,0,1,2.7-2.14c.72-.44.96-.58,1.23-1.12a13.871,13.871,0,0,0,1.16-2.54.985.985,0,0,0,.03-.24,4.27,4.27,0,0,1,3.44-4.62l.29-.03,1.06.01a5.482,5.482,0,0,1,5.11,5.96,18.854,18.854,0,0,1-.68,5.01l4.88.61a5.025,5.025,0,0,1,4.56,5.32,5.581,5.581,0,0,1-.65,2.39,4.829,4.829,0,0,1,.45,2.25,4.656,4.656,0,0,1-1.04,2.97,5.078,5.078,0,0,1-2.6,5.95,5.431,5.431,0,0,1-.06.58,4.05,4.05,0,0,1-1.23,2.37,5.253,5.253,0,0,1-3.7,1.51h-3.33a30.911,30.911,0,0,1-10.03-1.24c-.55-.19-1.02-.4-1.42-.58a3.73,3.73,0,0,0-1.03-.37h-2.14a5.121,5.121,0,0,1-3.49-1.14,4.688,4.688,0,0,1-1.41-3.61V134.79a4.679,4.679,0,0,1,4.9-4.43Zm11.48-8.59a4.265,4.265,0,0,1-.14,1.28,14.784,14.784,0,0,1-1.4,3.18,5.9,5.9,0,0,1-2.6,2.63,7.873,7.873,0,0,0-1.91,1.49,8.855,8.855,0,0,0-.98,1.38l-.54.96-.22.19a5.455,5.455,0,0,1-3.74,1.05h-.4a1.12,1.12,0,0,0-1.08,1.31v10.02a1.3,1.3,0,0,0,.22.94,1.642,1.642,0,0,0,1.08.23H559a5.85,5.85,0,0,1,2.45.69l.08.03c.31.14.66.29,1.05.43a27.917,27.917,0,0,0,8.86,1.04h3.32l1.42-.89c.01-.08.02-.21.02-.28a1.075,1.075,0,0,0-.05-.4l-.21-.59a.948.948,0,0,1-.07-.29,1.289,1.289,0,0,1,1.13-1.42l.63-.07a1.555,1.555,0,0,0,.91-.41,1.516,1.516,0,0,0,.45-1.11,1.342,1.342,0,0,0-.26-.8l-.37-.49a1.377,1.377,0,0,1-.13-.2,1.285,1.285,0,0,1,.59-1.72l.54-.27a.873.873,0,0,0,.46-.95,1.122,1.122,0,0,0-.31-.94l-.36-.35a.01.01,0,0,0-.01-.01,1.292,1.292,0,0,1,0-1.82l.37-.36a1.94,1.94,0,0,0,.53-1.25,1.469,1.469,0,0,0-1.28-1.6l-.1-.01-9.44-1.18.9-2.17a14.967,14.967,0,0,0,1.15-5.83c0-1.47-.57-1.88-.76-2.02a2.287,2.287,0,0,0-1.04-.37h-.57c-.43.17-.4.88-.4.89l-.21.07Z"/></g></g></g></svg>