<svg xmlns="http://www.w3.org/2000/svg" width="28.696" height="40" viewBox="0 0 28.696 40"><g transform="translate(-72.348)"><g transform="translate(72.348)"><path d="M86.7,0h0A14.364,14.364,0,0,0,72.348,14.348v11.3a14.348,14.348,0,0,0,28.7,0v-11.3A14.364,14.364,0,0,0,86.7,0Zm0,10.435a1.306,1.306,0,0,1,1.3,1.3v2.609a1.3,1.3,0,1,1-2.609,0V11.739A1.306,1.306,0,0,1,86.7,10.435ZM98.435,25.652a11.739,11.739,0,1,1-23.478,0v-11.3A11.755,11.755,0,0,1,85.391,2.682V8.051a3.919,3.919,0,0,0-2.609,3.689v2.609a3.913,3.913,0,1,0,7.826,0V11.739A3.919,3.919,0,0,0,88,8.051V2.682A11.755,11.755,0,0,1,98.435,14.348Z" transform="translate(-72.348)"/></g></g></svg>