<svg xmlns="http://www.w3.org/2000/svg" width="467.17" height="456.54" viewBox="0 0 467.17 456.54"><defs><style>.a{fill:none;stroke:#e9e9e9;stroke-linecap:round;stroke-miterlimit:10;stroke-width:3px;}</style></defs><g transform="translate(-3.205 -844.41)"><line class="a" x1="41.035" transform="translate(196.635 1299.45)"/><line class="a" x1="127.83" transform="translate(196.635 1285.28)"/><line class="a" x1="202.83" transform="translate(121.635 1271.11)"/><line class="a" x1="251.43" transform="translate(121.635 1256.93)"/><line class="a" x1="289.37" transform="translate(83.695 1242.76)"/><line class="a" x1="320.25" transform="translate(83.695 1228.59)"/><line class="a" x1="346.15" transform="translate(57.795 1214.41)"/><line class="a" x1="367.94" transform="translate(57.795 1200.24)"/><line class="a" x1="386.38" transform="translate(39.355 1186.07)"/><line class="a" x1="402.01" transform="translate(39.355 1171.89)"/><line class="a" x1="415.02" transform="translate(26.345 1157.72)"/><line class="a" x1="425.92" transform="translate(26.345 1143.55)"/><line class="a" x1="434.63" transform="translate(17.635 1129.38)"/><line class="a" x1="441.22" transform="translate(17.635 1115.2)"/><line class="a" x1="445.64" transform="translate(13.215 1101.03)"/><line class="a" x1="448.57" transform="translate(13.215 1086.86)"/><line class="a" x1="450" transform="translate(11.785 1072.68)"/><line class="a" x1="449.07" transform="translate(11.785 1058.51)"/><line class="a" x1="446.37" transform="translate(14.485 1044.34)"/><line class="a" x1="442.2" transform="translate(14.485 1030.16)"/><line class="a" x1="436.39" transform="translate(20.295 1015.99)"/><line class="a" x1="428.31" transform="translate(20.295 1001.82)"/><line class="a" x1="417.86" transform="translate(30.745 987.64)"/><line class="a" x1="405.1" transform="translate(30.745 973.47)"/><line class="a" x1="390.19" transform="translate(45.655 959.3)"/><line class="a" x1="372.52" transform="translate(45.655 945.12)"/><line class="a" x1="351.49" transform="translate(66.685 930.95)"/><line class="a" x1="326.73" transform="translate(66.685 916.78)"/><line class="a" x1="297.55" transform="translate(95.865 902.6)"/><line class="a" x1="261.93" transform="translate(95.865 888.43)"/><line class="a" x1="216.41" transform="translate(141.385 874.26)"/><line class="a" x1="150.98" transform="translate(141.385 860.08)"/><line class="a" x1="55.58" transform="translate(236.785 845.91)"/><path class="a" d="M141.385,874.26a7.09,7.09,0,0,1,0-14.18"/><path class="a" d="M292.365,860.08a7.085,7.085,0,1,0,0-14.17"/><path class="a" d="M357.8,888.43a7.085,7.085,0,1,0,0-14.17"/><path class="a" d="M393.415,916.78a7.09,7.09,0,0,0,0-14.18"/><path class="a" d="M418.175,945.12a7.085,7.085,0,1,0,0-14.17"/><path class="a" d="M435.845,973.47a7.085,7.085,0,1,0,0-14.17"/><path class="a" d="M448.605,1001.82a7.09,7.09,0,1,0,0-14.18"/><path class="a" d="M456.685,1030.16a7.085,7.085,0,1,0,0-14.17"/><path class="a" d="M460.855,1058.51a7.085,7.085,0,1,0,0-14.17"/><path class="a" d="M461.785,1086.86a7.09,7.09,0,1,0,0-14.18"/><path class="a" d="M458.855,1115.2a7.085,7.085,0,0,0,0-14.17"/><path class="a" d="M452.265,1143.55a7.085,7.085,0,1,0,0-14.17"/><path class="a" d="M441.365,1171.89a7.085,7.085,0,1,0,0-14.17"/><path class="a" d="M425.735,1200.24a7.085,7.085,0,1,0,0-14.17"/><path class="a" d="M403.945,1228.59a7.09,7.09,0,1,0,0-14.18"/><path class="a" d="M373.065,1256.93a7.085,7.085,0,1,0,0-14.17"/><path class="a" d="M324.465,1285.28a7.085,7.085,0,1,0,0-14.17"/><path class="a" d="M95.865,902.6a7.085,7.085,0,1,1,0-14.17"/><path class="a" d="M66.685,930.95a7.085,7.085,0,1,1,0-14.17"/><path class="a" d="M45.655,959.3a7.09,7.09,0,1,1,0-14.18"/><path class="a" d="M30.745,987.64a7.085,7.085,0,0,1,0-14.17"/><path class="a" d="M20.3,1015.99a7.085,7.085,0,0,1,0-14.17"/><path class="a" d="M14.485,1044.34a7.09,7.09,0,1,1,0-14.18"/><path class="a" d="M11.785,1072.68a7.085,7.085,0,0,1,0-14.17"/><path class="a" d="M13.215,1101.03a7.085,7.085,0,1,1,0-14.17"/><path class="a" d="M17.635,1129.38a7.09,7.09,0,0,1,0-14.18"/><path class="a" d="M26.345,1157.72a7.085,7.085,0,0,1,0-14.17"/><path class="a" d="M39.355,1186.07a7.09,7.09,0,0,1,0-14.18"/><path class="a" d="M57.795,1214.41a7.085,7.085,0,0,1,0-14.17"/><path class="a" d="M83.695,1242.76a7.085,7.085,0,1,1,0-14.17"/><path class="a" d="M121.635,1271.11a7.09,7.09,0,0,1,0-14.18"/><path class="a" d="M196.635,1299.45a7.085,7.085,0,1,1,0-14.17"/></g></svg>