<svg xmlns="http://www.w3.org/2000/svg" width="158" height="135" viewBox="0 0 158 135"><defs><style>.a,.d{fill:#fff;}.a{opacity:0.25;}.b{fill:#e74d4d;}.c,.f{fill:none;}.c{stroke:#e74d4d;stroke-width:2px;}.e{stroke:none;}</style></defs><g transform="translate(-1328 -1618)"><g transform="translate(845 524)"><circle class="a" cx="60" cy="60" r="60" transform="translate(501 1099)"/><path class="b" d="M-7176.5,10V6.5h-3.5v-3h3.5V0h3V3.5h3.5v3h-3.5V10Z" transform="translate(7801.5 1094)"/><path class="b" d="M-7174.4,16V10.4h-5.6V5.6h5.6V0h4.8V5.6h5.6v4.8h-5.6V16Z" transform="translate(7673.5 1213)"/><circle cx="3" cy="3" r="3" transform="translate(509 1104)"/><g class="c" transform="translate(483 1154)"><circle class="e" cx="5" cy="5" r="5"/><circle class="f" cx="5" cy="5" r="4"/></g><g class="c" transform="translate(627 1164)"><circle class="e" cx="7" cy="7" r="7"/><circle class="f" cx="7" cy="7" r="6"/></g><circle cx="2" cy="2" r="2" transform="translate(619 1209)"/></g><g transform="translate(1260.188 1519.503)"><g transform="translate(103.541 127.818)"><path class="d" d="M162.232,166.422l-1.185-1.185a18.72,18.72,0,0,0-31.958,13.235v10.313H130.7a6.452,6.452,0,0,1,6.452-6.452v1.613h2.965a7.075,7.075,0,0,0,6.713-4.839l-1.613,4.839h1.352a7.075,7.075,0,0,0,6.713-4.839l-1.613,4.839h1.352a7.075,7.075,0,0,0,6.713-4.839v3.226a6.452,6.452,0,0,1,6.452,6.452H167.8V174.531A8.679,8.679,0,0,0,162.232,166.422Z" transform="translate(-129.089 -159.753)"/><path class="d" d="M388.444,167.753a19.376,19.376,0,0,0-19.355,19.355v8.064H370.7a6.452,6.452,0,0,1,6.452-6.452v1.613a7.787,7.787,0,0,0,5.507-2.281l.945-.945a30.56,30.56,0,0,0,13.665,3.226h2.464v-1.613a6.452,6.452,0,0,1,6.452,6.452H407.8v-8.064A19.376,19.376,0,0,0,388.444,167.753Z" transform="translate(-320.702 -166.14)"/><path class="d" d="M445.992,420.592l-6.452-4.839-6.452,4.839,3.226,3.226L434.7,438.334l4.839,3.226,4.839-3.226-1.613-14.516Z" transform="translate(-371.799 -364.14)"/><path class="d" d="M205.992,420.592l-6.452-4.839-6.452,4.839,3.226,3.226L194.7,438.334l4.839,3.226,4.839-3.226-1.613-14.516Z" transform="translate(-180.186 -364.14)"/></g><path d="M190.468,277.461l-11.121-2.022v-3.113a12.96,12.96,0,0,0,3.914-5.287,8.042,8.042,0,0,0,.924-15.9v-3.389H180.96v4.839h-.851a29.061,29.061,0,0,1-12.942-3.057l-1.04-.519-1.768,1.767a6.2,6.2,0,0,1-2.753,1.563v-4.594h-3.226v3.389a8.042,8.042,0,0,0,.925,15.9,12.937,12.937,0,0,0,3.914,5.287v3.113L152.1,277.461a8.029,8.029,0,0,0-5.008,3.137,8.023,8.023,0,0,0-5.008-3.137l-11.12-2.022v-3.113a12.96,12.96,0,0,0,3.914-5.287,8.042,8.042,0,0,0,.924-15.9v-3.389h-3.226v1.3a5.438,5.438,0,0,1-4.8,3.516,8.677,8.677,0,0,0,1.491-2.692l-3.059-1.021a5.449,5.449,0,0,1-4.882,3.712,8.677,8.677,0,0,0,1.491-2.692l-3.058-1.021a5.466,5.466,0,0,1-5.186,3.735h-1.352v-4.839h-3.226v3.389a8.042,8.042,0,0,0,.925,15.9,12.937,12.937,0,0,0,3.914,5.287v3.113l-11.122,2.022a8.064,8.064,0,0,0-6.62,7.934v25.261h100V285.395A8.064,8.064,0,0,0,190.468,277.461ZM178.137,278.5l1.137.206-1.066,6.393-4.292-3.434Zm9.274-19.455a4.83,4.83,0,0,1-3.295,4.563,13.183,13.183,0,0,0,.069-1.337V254.5A4.832,4.832,0,0,1,187.412,259.043Zm-32.258,0a4.832,4.832,0,0,1,3.226-4.542v7.768a13.183,13.183,0,0,0,.069,1.337A4.83,4.83,0,0,1,155.154,259.043Zm6.452,3.226v-6.6a9.464,9.464,0,0,0,5.034-2.6l.139-.138a32.362,32.362,0,0,0,13.331,2.892h.851v6.452a9.677,9.677,0,1,1-19.355,0Zm9.677,12.9a12.817,12.817,0,0,0,4.839-.95v1.756l-4.839,3.629-4.839-3.629v-1.756A12.818,12.818,0,0,0,171.283,275.172Zm-6.855,3.326,4.221,3.166-4.292,3.434-1.066-6.393Zm-34.677,0,1.137.206-1.066,6.393-4.292-3.434Zm9.274-19.455a4.83,4.83,0,0,1-3.295,4.563,13.183,13.183,0,0,0,.069-1.337V254.5A4.832,4.832,0,0,1,139.024,259.043Zm-32.258,0a4.832,4.832,0,0,1,3.226-4.542v7.768a13.185,13.185,0,0,0,.069,1.337A4.83,4.83,0,0,1,106.766,259.043Zm6.452,3.226v-6.452h1.352a8.675,8.675,0,0,0,5.1-1.653v1.653h1.352a8.675,8.675,0,0,0,5.1-1.653v1.653h1.352a8.675,8.675,0,0,0,5.1-1.653v8.1a9.677,9.677,0,1,1-19.355,0Zm9.677,12.9a12.817,12.817,0,0,0,4.839-.95v1.756l-4.839,3.629-4.839-3.629v-1.756A12.818,12.818,0,0,0,122.9,275.172Zm-6.855,3.326,4.221,3.166L115.97,285.1,114.9,278.7Zm-15.726,6.9a4.84,4.84,0,0,1,3.973-4.761l7.444-1.352,1.961,11.772,9.2-7.364,9.2,7.364,1.961-11.772,7.443,1.352a4.839,4.839,0,0,1,3.974,4.761V292l2.016-.521a4.828,4.828,0,1,1,1.21,9.5,4.884,4.884,0,0,1-1.21-.176l-2.016-.523v7.15H100.315Zm93.548,22.036H148.7V304.2a8.064,8.064,0,1,0,0-16.129v-2.681a4.84,4.84,0,0,1,3.973-4.761l7.444-1.352,1.961,11.772,9.2-7.364,9.2,7.364,1.961-11.772,7.443,1.352a4.839,4.839,0,0,1,3.974,4.761Z" transform="translate(0 -102.194)"/><path d="M97.089,599.753h3.226v3.226H97.089Z" transform="translate(0 -383.226)"/><path d="M129.089,599.753h3.226v3.226h-3.226Z" transform="translate(-25.548 -383.226)"/><path d="M161.089,599.753h3.226v3.226h-3.226Z" transform="translate(-51.097 -383.226)"/><path d="M222.444,572.888l2.9,3.871H193.089v3.226H231.8l-6.774-9.032Z" transform="translate(-76.645 -360.231)"/><path d="M577.089,119.753h3.226v3.226h-3.226Z" transform="translate(-383.226)"/><path d="M545.089,119.753h3.226v3.226h-3.226Z" transform="translate(-357.677)"/><path d="M513.089,119.753h3.226v3.226h-3.226Z" transform="translate(-332.129)"/><path d="M314.444,126.85l-2.9-3.871H343.8v-3.226h-38.71l6.775,9.032Z" transform="translate(-166.064)"/></g></g></svg>