<svg xmlns="http://www.w3.org/2000/svg" width="1287.195" height="443.026" viewBox="0 0 1287.195 443.026"><defs><style>.a{fill:#df1111;}</style></defs><g transform="translate(0 -1036.5)"><path class="a" d="M3082.48-370.81a10.238,10.238,0,0,1-9.03,10.65,9.993,9.993,0,0,1-10.95-9.6c-5.09-165.64-140.97-298.36-307.85-298.36a307.371,307.371,0,0,0-237,111.29v76.71h-4.36V-734.6h4.36a440.672,440.672,0,0,1,226.82-68.54,10,10,0,0,1,10.17,10.55,10.276,10.276,0,0,1-10.17,9.46,419.9,419.9,0,0,0-154.52,33.12,421.315,421.315,0,0,0-68.5,36.72,8.458,8.458,0,0,0-2.79,3.07,8.493,8.493,0,0,0-1.01,4.04,8.55,8.55,0,0,0,13.25,7.15,404.891,404.891,0,0,1,65.7-35.21,403.483,403.483,0,0,1,158.05-31.92,403.481,403.481,0,0,1,157.19,31.56c.01.01.02.01.04.01.28.12.55.23.83.35l.19.08a10.879,10.879,0,0,1,1.36.7,2.4,2.4,0,0,1,.21.13,10.032,10.032,0,0,1,4.43,8.33,10.051,10.051,0,0,1-10.05,10.05,9.871,9.871,0,0,1-2.94-.44c-.61-.26-1.23-.52-1.85-.77-.01-.01-.01-.01-.02-.01a384.469,384.469,0,0,0-149.39-29.99,384.326,384.326,0,0,0-233.25,78.42,9.44,9.44,0,0,0-2.77,3.36,9.674,9.674,0,0,0-.98,4.25,9.578,9.578,0,0,0,15.36,7.64,364.723,364.723,0,0,1,78.84-45.63,364.5,364.5,0,0,1,142.8-28.84,364.464,364.464,0,0,1,142.8,28.84,365.451,365.451,0,0,1,116.6,78.61q8.865,8.865,17.05,18.23a9.987,9.987,0,0,1-.83,13.94,10.2,10.2,0,0,1-14.47-1.04,346,346,0,0,0-261.15-118.58,345.46,345.46,0,0,0-231.71,88.77q-1.425,1.275-2.82,2.55a7.957,7.957,0,0,0-2.46,4.61l-.01.04a9.689,9.689,0,0,0-.12,1.53,9.689,9.689,0,0,0,.12,1.53,9.748,9.748,0,0,0,9.62,8.21,5.191,5.191,0,0,0,.92-.09,10.818,10.818,0,0,0,5.53-2.74c.54-.49,1.72-1.56,1.77-1.6a326.294,326.294,0,0,1,91.48-58.18,325.962,325.962,0,0,1,127.68-25.79,325.964,325.964,0,0,1,127.68,25.79,326.88,326.88,0,0,1,104.25,70.28,326.9,326.9,0,0,1,70.29,104.26A325.2,325.2,0,0,1,3082.48-370.81Z" transform="translate(-1795.29 1839.643)"/><rect class="a" width="718" height="260" transform="translate(0 1105)"/></g></svg>