<svg xmlns="http://www.w3.org/2000/svg" width="562.99" height="498.002" viewBox="0 0 562.99 498.002"><defs><style>.a{fill:#a7a7a7;}.a,.b{font-size:12px;font-family:Roboto-Regular, Roboto;}.c,.d,.g,.h,.k{fill:none;}.c,.g,.h{stroke:#000;}.c,.d,.k{stroke-linecap:round;}.c,.h{stroke-linejoin:round;}.c,.g,.h,.k{stroke-width:2px;}.d,.k{stroke:#e01019;}.d,.g,.k{stroke-miterlimit:10;}.e{fill:#df1111;}.f{fill:#e01019;}.i{fill:#df1015;}.j{fill:#e0111a;}</style></defs><g transform="translate(-934.01 -2205)"><text class="a" transform="translate(946 2428.002)"><tspan x="0" y="0">Акумулятор</tspan></text><text class="a" transform="translate(1110 2243.002)"><tspan x="0" y="0">Свічки запалювання з котушками</tspan></text><text class="a" transform="translate(1371 2295.002)"><tspan x="0" y="0">Блок керування</tspan></text><text class="a" transform="translate(1429 2537.002)"><tspan x="0" y="0">Бензонасос</tspan></text><text class="a" transform="translate(1034 2599.002)"><tspan x="0" y="0">Паливна форсунка</tspan></text><text class="b" transform="translate(1204 2700.002)"><tspan x="0" y="0">Ключ відновлює розриви в електричному колі авто</tspan></text><text class="a" transform="translate(1132 2455.002)"><tspan x="0" y="0">Датчик положення </tspan><tspan x="0" y="14">колінчастого вала</tspan></text><g transform="translate(133.065 1838.674)"><path class="c" d="M1218.049,803.128a13.591,13.591,0,0,1-11.057,7.1c-7.642.414-14.2-5.946-14.649-14.2s5.386-15.287,13.028-15.7a12.716,12.716,0,0,1,4.527.565"/><ellipse class="d" cx="2.23" cy="2.809" rx="2.23" ry="2.809" transform="translate(1204.447 792.558) rotate(-3.102)"/><ellipse class="d" cx="2.23" cy="2.809" rx="2.23" ry="2.809" transform="translate(1204.447 792.558) rotate(-3.102)"/><ellipse class="e" cx="1.186" cy="2.265" rx="1.186" ry="2.265" transform="translate(1206.561 792.988) rotate(-3.102)"/><ellipse class="d" cx="2.23" cy="2.809" rx="2.23" ry="2.809" transform="translate(1212.356 792.129) rotate(-3.102)"/><ellipse class="e" cx="1.186" cy="2.265" rx="1.186" ry="2.265" transform="translate(1214.47 792.559) rotate(-3.102)"/><ellipse class="d" cx="2.23" cy="2.809" rx="2.23" ry="2.809" transform="translate(1195.385 793.049) rotate(-3.102)"/><ellipse class="e" cx="1.186" cy="2.265" rx="1.186" ry="2.265" transform="translate(1197.499 793.479) rotate(-3.102)"/><ellipse class="d" cx="2.23" cy="2.809" rx="2.23" ry="2.809" transform="translate(1203.96 783.579) rotate(-3.102)"/><ellipse class="e" cx="1.186" cy="2.265" rx="1.186" ry="2.265" transform="translate(1206.077 784.117) rotate(-3.102)"/><ellipse class="d" cx="2.23" cy="2.809" rx="2.23" ry="2.809" transform="translate(1209.502 786.092) rotate(-3.102)"/><ellipse class="e" cx="1.186" cy="2.265" rx="1.186" ry="2.265" transform="translate(1211.616 786.522) rotate(-3.102)"/><ellipse class="c" cx="20.101" cy="22.471" rx="20.101" ry="22.471" transform="translate(1176.943 777.675) rotate(-3.102)"/><ellipse class="d" cx="2.23" cy="2.809" rx="2.23" ry="2.809" transform="translate(1198.328 786.357) rotate(-3.102)"/><ellipse class="e" cx="1.186" cy="2.265" rx="1.186" ry="2.265" transform="translate(1200.442 786.787) rotate(-3.102)"/><ellipse class="d" cx="2.23" cy="2.809" rx="2.23" ry="2.809" transform="translate(1204.972 802.254) rotate(-3.102)"/><ellipse class="e" cx="1.186" cy="2.265" rx="1.186" ry="2.265" transform="translate(1207.087 802.684) rotate(-3.102)"/><ellipse class="d" cx="2.23" cy="2.809" rx="2.23" ry="2.809" transform="translate(1211.317 799.486) rotate(-3.102)"/><ellipse class="e" cx="1.186" cy="2.265" rx="1.186" ry="2.265" transform="translate(1213.431 799.916) rotate(-3.102)"/><ellipse class="d" cx="2.23" cy="2.809" rx="2.23" ry="2.809" transform="translate(1198.831 800.162) rotate(-3.102)"/><ellipse class="e" cx="1.186" cy="2.265" rx="1.186" ry="2.265" transform="translate(1200.945 800.592) rotate(-3.102)"/><ellipse class="c" cx="24.282" cy="27.714" rx="24.282" ry="27.714" transform="translate(1172.484 772.666) rotate(-3.102)"/><ellipse class="c" cx="26.76" cy="30.904" rx="26.76" ry="30.904" transform="translate(1171.153 769.542) rotate(-3.102)"/><ellipse class="c" cx="28.21" cy="30.904" rx="28.21" ry="30.904" transform="translate(1171.153 769.542) rotate(-3.102)"/><line class="c" y1="0.489" x2="9.029" transform="translate(1206.992 809.74)"/><path class="c" d="M1201,759.185c19.237-1.042,35.773,15.5,36.935,36.939s-13.49,39.671-32.726,40.714-35.774-15.5-36.936-36.939S1181.759,760.228,1201,759.185Zm20.111,18.245,1.323-1.906a3.843,3.843,0,0,0-.691-5.1,3.206,3.206,0,0,0-4.728.7l-1.147,1.649M1228.042,808l1.73.952a3.807,3.807,0,0,1,1.5,4.9,3.244,3.244,0,0,1-4.537,1.58l-1.357-.749m-8.557,9.945.227.58a3.96,3.96,0,0,1,.274,1.238,3.648,3.648,0,0,1-2.033,3.537,3.312,3.312,0,0,1-4.441-1.944l-.039-.09-.013-.033a25.717,25.717,0,0,1-3.187,1.035l0,.034.094,1.749c-2.684,3.4-6.358,1.822-6.793-.914,0-.017-.008-.034-.009-.052-.138,0-.27,0-.409-.012a24.461,24.461,0,0,1-3.223-.279c-.037.071-.073.136-.11.2a3.357,3.357,0,0,1-2.659,1.651,3.152,3.152,0,0,1-1.158-.156,3.626,3.626,0,0,1-2.388-3.114q-.02-.187-.021-.378a27.145,27.145,0,0,1-3.643-1.878,3.1,3.1,0,0,1-.317.2,3.183,3.183,0,0,1-3.606-.322,3.8,3.8,0,0,1-1.289-3.639c.018-.093.036-.18.06-.273a31.016,31.016,0,0,1-2.911-3.315.784.784,0,0,1-.165.026,3.314,3.314,0,0,1-3.354-1.618,3.878,3.878,0,0,1,.071-4.1v-.006c.005-.006.005-.012.01-.018-.215-.465-.43-.942-.617-1.421-.007-.011-.007-.017-.013-.028-.37-.882-.695-1.791-.981-2.712a3.539,3.539,0,0,1-2.9-2.8,3.745,3.745,0,0,1,1.54-3.942q-.072-.7-.111-1.425c-.052-.958-.058-1.912-.029-2.857a3.723,3.723,0,0,1-2.051-3.792,3.479,3.479,0,0,1,3-3.176c.117-.489.252-.979.393-1.458.043-.158.086-.31.135-.468.2-.631.409-1.258.646-1.869l-.03-.027a3.843,3.843,0,0,1-.94-4.508,3.243,3.243,0,0,1,4.019-1.8,1.1,1.1,0,0,1,.176.059,30.2,30.2,0,0,1,2.2-2.89c-.056-.072-.106-.15-.156-.222a3.83,3.83,0,0,1,.421-4.743,3.191,3.191,0,0,1,4.613.02,1.537,1.537,0,0,1,.164.169l.074.083a26.487,26.487,0,0,1,2.819-1.769l-.107-.264-.02-.051a4,4,0,0,1-.254-1.188,3.65,3.65,0,0,1,2.034-3.537,3.312,3.312,0,0,1,4.44,1.944l.187.467.073.186c.409-.1.818-.188,1.228-.262.233-.047.466-.088.706-.124s.467-.077.707-.108c.131-.024.262-.037.394-.056l0-.051-.061-1.124a3.379,3.379,0,0,1,3.28-3.558,3.482,3.482,0,0,1,3.47,3.353l.078,1.434,0,.034a25.508,25.508,0,0,1,2.825.571l.015-.041v-.006l.4-1.436a3.4,3.4,0,0,1,3.041-2.568,3.178,3.178,0,0,1,1.164.156,3.727,3.727,0,0,1,2.265,4.557l-.5,1.833m10.314,45.932.908,1.049a3.841,3.841,0,0,1-.135,5.148,3.207,3.207,0,0,1-4.777-.19l-.564-.648m9.911-24.639,2.323.311a3.634,3.634,0,0,1,2.968,4.065,3.41,3.41,0,0,1-3.749,3.164l-2.057-.279m.317-9.964,2.326-.575a3.634,3.634,0,0,0,2.512-4.362,3.411,3.411,0,0,0-4.07-2.741l-2.377.589m-.974-2.483,2.033-1.421a3.807,3.807,0,0,0,.963-5.037,3.243,3.243,0,0,0-4.681-1.08l-1.917,1.34"/><path class="c" d="M1202.763,755.192c20.329-1.1,37.823,16.712,39.074,39.788s-14.215,42.676-34.545,43.778-37.823-16.712-39.073-39.788S1182.434,756.294,1202.763,755.192Z"/><path class="c" d="M1224.809,761.985l9.789.65,1.811,3.539.359.682.884,1.683,10.159,19.291v.006l2.365,4.495v.005l1.089,2.063.309,5.7.028.528-.178.32v.006l-3.576,6.489c0,.006-.005.006-.005.012l-3.324,6.033-.068.125-1.288,2.335-.2.367h-.006l-.01.03-6.025,10.934-11.362,4.767-.567.238"/><line class="c" y1="0.869" x2="7.856" transform="translate(1226.742 762.635)"/><line class="c" y1="0.608" x2="9.833" transform="translate(1241.77 800.625)"/><line class="c" y1="0.511" x2="9.43" transform="translate(1241.836 794.399)"/><path class="c" d="M1236.28,765.928"/><path class="c" d="M1257.2,809.86c5.381-4.052,8.807-12.551,8.285-22.177-.7-12.824-8.141-22.908-16.785-22.945"/><path class="c" d="M1244.534,765.136c8.624.09,16.225,10.465,16.94,23.65.5,9.293-2.62,17.563-7.405,22h-.006"/><path class="c" d="M1250.8,811.742c4.474-4.658,7.192-12.866,6.693-22.056-.7-13.013-7.609-23.385-15.793-24.276"/><line class="c" x2="0.006" transform="translate(1242.961 816.312)"/><path class="c" d="M1247.775,812.631c4.184-4.81,6.684-12.885,6.2-21.892-.767-14.148-8.617-25.228-17.538-24.744"/><path class="c" d="M1236.768,766.856c7.075,2.607,12.722,12.592,13.383,24.8.013.229.025.452.025.677v.005"/><path class="c" d="M1247.85,807.44c0,.006-.005.006-.005.012a24.193,24.193,0,0,1-3.324,6.033"/><path class="f" d="M915.615,499.67c6.03,3.48,15.8,3.48,21.82,0a10.072,10.072,0,0,0,3.63-3.3,5.631,5.631,0,0,0,.9-3v10.46c0,2.16-1.35,4.33-4.09,6.04-.14.09-.29.17-.44.26-6.02,3.48-15.79,3.48-21.82,0-.15-.09-.29-.17-.42-.26-2.73-1.71-4.1-3.88-4.1-6.04V493.37a5.721,5.721,0,0,0,.9,3A9.951,9.951,0,0,0,915.615,499.67Z"/><path class="g" d="M931.645,530.91v4.18a2.556,2.556,0,0,1-1.5,2.09,7.966,7.966,0,0,1-7.24,0,2.542,2.542,0,0,1-1.49-2.09v-4.18"/><path class="g" d="M937.875,509.87v15.21c0,1.67-1.12,3.34-3.33,4.62a13,13,0,0,1-2.9,1.21,19.1,19.1,0,0,1-10.23,0,13,13,0,0,1-2.9-1.21c-2.21-1.28-3.32-2.95-3.32-4.62V509.87"/><line class="g" y2="9.56" transform="translate(941.965 483.81)"/><path class="g" d="M933.2,491.83a7.752,7.752,0,0,0,.82-.25"/><line class="g" y1="9.56" transform="translate(911.095 483.81)"/><path class="g" d="M941.965,493.37v10.46c0,2.16-1.35,4.33-4.09,6.04-.14.09-.29.17-.44.26-6.02,3.48-15.79,3.48-21.82,0-.15-.09-.29-.17-.42-.26-2.73-1.71-4.1-3.88-4.1-6.04V493.37a5.721,5.721,0,0,0,.9,3,9.951,9.951,0,0,0,3.62,3.3c6.03,3.48,15.8,3.48,21.82,0a10.072,10.072,0,0,0,3.63-3.3A5.631,5.631,0,0,0,941.965,493.37Z"/><path class="g" d="M937.035,477.29a3.847,3.847,0,0,1,.4.21c3.03,1.74,4.53,4.02,4.53,6.31a5.243,5.243,0,0,1-.28,1.71,2.918,2.918,0,0,1-.13.34,5.232,5.232,0,0,1-.45.88c-.09.14-.17.28-.27.41a8.173,8.173,0,0,1-.72.88c-.17.18-.37.37-.56.55a5.852,5.852,0,0,1-.47.4,14.389,14.389,0,0,1-1.65,1.12c-.32.19-.64.36-.97.52-.12.06-.26.12-.4.19-.31.13-.63.27-.96.39-.36.14-.72.27-1.09.38-.27.09-.55.18-.82.25-.32.09-.65.17-.97.25-.42.1-.84.18-1.27.26-.31.05-.63.1-.96.13a3.678,3.678,0,0,1-.58.08,8.419,8.419,0,0,1-1.01.08,4.168,4.168,0,0,1-.61.04c-.42.03-.85.04-1.27.04s-.84-.01-1.27-.04a3.814,3.814,0,0,1-.59-.04,14.932,14.932,0,0,1-1.5-.14c-.34-.04-.69-.09-1.02-.15-.45-.08-.89-.16-1.32-.26-.34-.08-.67-.16-1-.26-.26-.08-.52-.15-.78-.24h-.01c-.34-.11-.67-.22-.99-.34q-.555-.21-1.08-.45c-.13-.05-.25-.11-.38-.17-.33-.16-.66-.33-.97-.52a13.268,13.268,0,0,1-1.63-1.12,5.852,5.852,0,0,1-.47-.4c-.2-.18-.4-.37-.57-.55a7.214,7.214,0,0,1-.58-.68c-.09-.11-.16-.22-.24-.33a2.6,2.6,0,0,1-.17-.28,5.161,5.161,0,0,1-.44-.88c-.05-.12-.1-.23-.14-.34a5.243,5.243,0,0,1-.28-1.71c0-2.29,1.5-4.57,4.52-6.31a3.361,3.361,0,0,1,.42-.22"/><path class="g" d="M937.035,454.93V483.4c0,1.54-1.03,3.1-3.08,4.28a16.4,16.4,0,0,1-14.85,0c-2.05-1.18-3.07-2.74-3.07-4.28V454.93"/><path class="h" d="M930.635,449.34a12.819,12.819,0,0,1,3.32,1.29c2.05,1.19,3.08,2.73,3.08,4.29v.01c0,1.54-1.03,3.1-3.08,4.28a16.4,16.4,0,0,1-14.85,0c-2.05-1.18-3.07-2.74-3.07-4.28v-.01c0-1.56,1.02-3.1,3.07-4.29a12.388,12.388,0,0,1,3.31-1.28"/><path class="g" d="M931.645,451.09v3.35a2.53,2.53,0,0,1-1.5,2.08,7.966,7.966,0,0,1-7.24,0,2.516,2.516,0,0,1-1.49-2.08v-3.2"/><path class="g" d="M928.315,448.32a6.139,6.139,0,0,1,1.83.68,2.849,2.849,0,0,1,.49.34,2.232,2.232,0,0,1,1.01,1.75,2.543,2.543,0,0,1-1.5,2.09,7.966,7.966,0,0,1-7.24,0,2.606,2.606,0,0,1-1.49-1.94v-.15h.01a2.2,2.2,0,0,1,.99-1.74,4.725,4.725,0,0,1,.49-.35,6.526,6.526,0,0,1,1.84-.68"/><path class="g" d="M928.315,442.26v8.52a.891.891,0,0,1-.53.73,2.86,2.86,0,0,1-2.52,0,.919.919,0,0,1-.52-.73v-8.52"/><path class="g" d="M928.315,442.26a.891.891,0,0,1-.53.73,2.8,2.8,0,0,1-2.52,0,.772.772,0,0,1,0-1.46,2.8,2.8,0,0,1,2.52,0A.891.891,0,0,1,928.315,442.26Z"/><path class="f" d="M965.1,520.69c6.04,3.48,15.81,3.48,21.83,0a10.072,10.072,0,0,0,3.63-3.3,5.747,5.747,0,0,0,.9-3v10.46c0,2.16-1.36,4.33-4.1,6.04-.13.08-.28.17-.43.26-6.02,3.48-15.79,3.48-21.83,0-.15-.09-.28-.18-.42-.26-2.73-1.71-4.1-3.88-4.1-6.04V514.39a5.671,5.671,0,0,0,.91,3A10,10,0,0,0,965.1,520.69Z"/><path class="g" d="M981.145,551.92v4.19a2.583,2.583,0,0,1-1.51,2.09,7.946,7.946,0,0,1-7.23,0,2.555,2.555,0,0,1-1.49-2.09v-4.19"/><path class="g" d="M987.365,530.89V546.1c0,1.66-1.11,3.34-3.32,4.61a12.306,12.306,0,0,1-2.9,1.21,18.908,18.908,0,0,1-10.23,0,12.383,12.383,0,0,1-2.91-1.21c-2.21-1.27-3.32-2.95-3.32-4.61V530.89"/><line class="g" y2="9.57" transform="translate(991.465 504.82)"/><line class="g" y1="9.57" transform="translate(960.585 504.82)"/><path class="g" d="M991.465,514.39v10.46c0,2.16-1.36,4.33-4.1,6.04-.13.08-.28.17-.43.26-6.02,3.48-15.79,3.48-21.83,0-.15-.09-.28-.18-.42-.26-2.73-1.71-4.1-3.88-4.1-6.04V514.39a5.671,5.671,0,0,0,.91,3,10,10,0,0,0,3.61,3.3c6.04,3.48,15.81,3.48,21.83,0a10.072,10.072,0,0,0,3.63-3.3A5.747,5.747,0,0,0,991.465,514.39Z"/><path class="g" d="M986.525,498.31a3.984,3.984,0,0,1,.41.21c3.02,1.74,4.53,4.02,4.53,6.3a3.682,3.682,0,0,1-.04.58,5.035,5.035,0,0,1-.24,1.14,2.327,2.327,0,0,1-.14.33,4.9,4.9,0,0,1-.44.89c-.09.14-.18.27-.27.41a8.172,8.172,0,0,1-.72.88c-.17.18-.37.37-.57.55-.15.14-.31.27-.47.4a13.407,13.407,0,0,1-1.64,1.12c-.32.19-.64.36-.98.52q-.18.09-.39.18c-.31.14-.63.28-.96.4-.36.14-.72.27-1.09.38-.27.09-.56.17-.83.25-.32.09-.64.17-.96.25-.42.09-.84.18-1.27.26-.31.04-.63.09-.96.13a3.822,3.822,0,0,1-.58.07,8.593,8.593,0,0,1-1.02.09,3.949,3.949,0,0,1-.6.04c-.42.02-.85.04-1.27.04s-.84-.02-1.28-.04a3.992,3.992,0,0,1-.59-.04,12.329,12.329,0,0,1-1.49-.15c-.35-.03-.69-.08-1.03-.14-.44-.08-.89-.17-1.32-.26-.33-.08-.66-.16-1-.26-.26-.08-.52-.15-.78-.24h-.01c-.33-.11-.66-.22-.99-.34-.37-.14-.72-.29-1.07-.45a3.338,3.338,0,0,1-.38-.17,10.119,10.119,0,0,1-.98-.52,14.073,14.073,0,0,1-1.63-1.12c-.16-.13-.32-.26-.47-.4-.19-.18-.39-.37-.56-.55a8.737,8.737,0,0,1-.58-.68,4.156,4.156,0,0,1-.24-.34,1.777,1.777,0,0,1-.17-.27,4.379,4.379,0,0,1-.45-.89c-.05-.11-.09-.22-.13-.33a5.057,5.057,0,0,1-.25-1.14,5.457,5.457,0,0,1-.04-.58c0-2.28,1.51-4.56,4.52-6.3.14-.08.29-.17.42-.23"/><path class="g" d="M986.525,475.95v28.47c0,1.54-1.02,3.1-3.07,4.28a16.4,16.4,0,0,1-14.85,0c-2.05-1.18-3.08-2.74-3.08-4.28V475.95"/><path class="h" d="M980.135,470.35a12.833,12.833,0,0,1,3.32,1.3c2.05,1.19,3.07,2.73,3.07,4.28v.02c0,1.54-1.02,3.1-3.07,4.28a16.4,16.4,0,0,1-14.85,0c-2.05-1.18-3.08-2.74-3.08-4.28v-.02c0-1.55,1.03-3.09,3.08-4.28a11.939,11.939,0,0,1,3.31-1.28"/><path class="g" d="M981.145,472.11v3.34a2.544,2.544,0,0,1-1.51,2.09,7.945,7.945,0,0,1-7.23,0,2.517,2.517,0,0,1-1.49-2.09v-3.19"/><path class="g" d="M977.815,469.34a6.181,6.181,0,0,1,1.82.68,3.1,3.1,0,0,1,.5.33,2.291,2.291,0,0,1,1.01,1.76,2.531,2.531,0,0,1-1.51,2.08,7.945,7.945,0,0,1-7.23,0,2.592,2.592,0,0,1-1.49-1.93v-.15h.01a2.189,2.189,0,0,1,.99-1.74,2.672,2.672,0,0,1,.49-.35,6.306,6.306,0,0,1,1.84-.68"/><path class="g" d="M977.815,463.28v8.52a.912.912,0,0,1-.53.73,2.86,2.86,0,0,1-2.52,0,.9.9,0,0,1-.52-.73v-8.52"/><path class="g" d="M977.815,463.28a.912.912,0,0,1-.53.73,2.86,2.86,0,0,1-2.52,0,.772.772,0,0,1,0-1.46,2.735,2.735,0,0,1,2.52,0A.912.912,0,0,1,977.815,463.28Z"/><path class="f" d="M1014.6,541.71c6.04,3.48,15.8,3.48,21.83,0a10.333,10.333,0,0,0,3.63-3.3,5.746,5.746,0,0,0,.9-3v10.46c0,2.16-1.36,4.33-4.1,6.03-.14.09-.29.18-.43.26-6.03,3.48-15.79,3.48-21.83,0a4.279,4.279,0,0,1-.42-.26c-2.73-1.7-4.1-3.87-4.1-6.03V535.41a5.747,5.747,0,0,0,.9,3A10.038,10.038,0,0,0,1014.6,541.71Z"/><path class="g" d="M1030.645,572.94v4.19a2.557,2.557,0,0,1-1.51,2.08,7.946,7.946,0,0,1-7.23,0,2.543,2.543,0,0,1-1.5-2.08v-4.19"/><path class="g" d="M1036.865,551.9v15.21c0,1.67-1.11,3.35-3.32,4.62a12.74,12.74,0,0,1-2.9,1.21,18.944,18.944,0,0,1-10.24,0,12.738,12.738,0,0,1-2.9-1.21c-2.21-1.27-3.32-2.95-3.32-4.62V551.9"/><line class="g" y2="9.57" transform="translate(1040.965 525.84)"/><line class="g" y1="9.57" transform="translate(1010.085 525.84)"/><path class="g" d="M1040.965,535.41v10.46c0,2.16-1.36,4.33-4.1,6.03-.14.09-.29.18-.43.26-6.03,3.48-15.79,3.48-21.83,0a4.279,4.279,0,0,1-.42-.26c-2.73-1.7-4.1-3.87-4.1-6.03V535.41a5.747,5.747,0,0,0,.9,3,10.038,10.038,0,0,0,3.62,3.3c6.04,3.48,15.8,3.48,21.83,0a10.333,10.333,0,0,0,3.63-3.3A5.746,5.746,0,0,0,1040.965,535.41Z"/><path class="g" d="M1036.025,519.32c.13.06.27.14.41.21,3.02,1.74,4.53,4.03,4.53,6.31a5.68,5.68,0,0,1-.04.58,5.182,5.182,0,0,1-.25,1.14,1.512,1.512,0,0,1-.13.33,4.652,4.652,0,0,1-.45.89,4.787,4.787,0,0,1-.27.41,7.958,7.958,0,0,1-.71.87c-.18.19-.38.37-.57.56a5.709,5.709,0,0,1-.47.39,13.1,13.1,0,0,1-1.64,1.13c-.32.18-.65.36-.98.52-.12.06-.26.12-.39.18-.31.14-.63.27-.97.4-.36.13-.71.27-1.08.38-.28.09-.56.17-.83.25-.32.08-.64.17-.96.24-.42.1-.84.19-1.28.26-.3.05-.62.1-.96.14a3.542,3.542,0,0,1-.58.07,8.429,8.429,0,0,1-1.01.09c-.2.02-.41.04-.61.04-.42.02-.85.03-1.27.03s-.84-.01-1.27-.03a5.839,5.839,0,0,1-.59-.04c-.51-.03-1-.08-1.5-.15-.34-.04-.69-.09-1.02-.15-.44-.07-.89-.16-1.32-.26-.33-.07-.67-.16-1-.26-.26-.07-.52-.14-.78-.23h-.01c-.33-.11-.67-.22-.99-.35a11.405,11.405,0,0,1-1.07-.44c-.14-.05-.26-.11-.39-.17-.33-.16-.66-.34-.97-.52a12.275,12.275,0,0,1-1.63-1.13,5.718,5.718,0,0,1-.47-.39c-.2-.19-.4-.37-.57-.56a6.142,6.142,0,0,1-.58-.68c-.08-.11-.16-.22-.23-.33a1.811,1.811,0,0,1-.18-.27,5.247,5.247,0,0,1-.44-.89c-.05-.11-.1-.22-.14-.33a5.155,5.155,0,0,1-.24-1.14,3.766,3.766,0,0,1-.04-.58c0-2.28,1.51-4.57,4.52-6.31.13-.07.28-.16.42-.22"/><path class="g" d="M1036.025,496.96v28.47c0,1.55-1.03,3.1-3.08,4.29a16.4,16.4,0,0,1-14.85,0c-2.05-1.19-3.07-2.74-3.07-4.29V496.96"/><path class="h" d="M1029.625,491.37a12.7,12.7,0,0,1,3.32,1.3c2.05,1.18,3.08,2.73,3.08,4.28v.01c0,1.55-1.03,3.1-3.08,4.29a16.4,16.4,0,0,1-14.85,0c-2.05-1.19-3.07-2.74-3.07-4.29v-.01c0-1.55,1.02-3.1,3.07-4.28a12.4,12.4,0,0,1,3.31-1.29"/><path class="g" d="M1030.645,493.13v3.34a2.557,2.557,0,0,1-1.51,2.09,7.945,7.945,0,0,1-7.23,0,2.543,2.543,0,0,1-1.5-2.09v-3.2"/><path class="g" d="M1027.305,490.36a6.14,6.14,0,0,1,1.83.68,2.62,2.62,0,0,1,.49.33,2.276,2.276,0,0,1,1.02,1.76,2.544,2.544,0,0,1-1.51,2.08,7.945,7.945,0,0,1-7.23,0,2.605,2.605,0,0,1-1.5-1.94v-.14h.01a2.219,2.219,0,0,1,.99-1.75,3.959,3.959,0,0,1,.5-.34,6.351,6.351,0,0,1,1.83-.68"/><path class="g" d="M1027.305,484.3v8.52a.879.879,0,0,1-.53.72,2.8,2.8,0,0,1-2.52,0,.906.906,0,0,1-.52-.72V484.3"/><path class="g" d="M1027.305,484.3a.891.891,0,0,1-.53.73,2.86,2.86,0,0,1-2.52,0,.772.772,0,0,1,0-1.46,2.735,2.735,0,0,1,2.52,0A.891.891,0,0,1,1027.305,484.3Z"/><path class="f" d="M1060.485,559.43a9.976,9.976,0,0,0,3.61,3.29c6.04,3.49,15.81,3.49,21.83,0a10.053,10.053,0,0,0,3.63-3.29,5.774,5.774,0,0,0,.9-3v10.45c0,2.16-1.35,4.34-4.1,6.04-.13.09-.28.17-.43.26-6.02,3.48-15.79,3.48-21.83,0-.14-.09-.28-.17-.41-.26-2.73-1.7-4.1-3.88-4.1-6.04V556.43A5.774,5.774,0,0,0,1060.485,559.43Z"/><path class="g" d="M1080.135,593.96v4.18a2.543,2.543,0,0,1-1.5,2.09,7.966,7.966,0,0,1-7.24,0,2.529,2.529,0,0,1-1.49-2.09v-4.18"/><path class="g" d="M1086.355,572.92v15.21c0,1.67-1.11,3.35-3.32,4.62a13.007,13.007,0,0,1-2.9,1.21,18.908,18.908,0,0,1-10.23,0,13.007,13.007,0,0,1-2.9-1.21c-2.21-1.27-3.32-2.95-3.32-4.62V572.92"/><line class="g" y2="9.57" transform="translate(1090.455 546.86)"/><path class="g" d="M1081.685,554.88a7.72,7.72,0,0,0,.82-.24"/><line class="g" y1="9.57" transform="translate(1059.585 546.86)"/><path class="g" d="M1090.455,556.43v10.45c0,2.16-1.35,4.34-4.1,6.04-.13.09-.28.17-.43.26-6.02,3.48-15.79,3.48-21.83,0-.14-.09-.28-.17-.41-.26-2.73-1.7-4.1-3.88-4.1-6.04V556.43a5.774,5.774,0,0,0,.9,3,9.976,9.976,0,0,0,3.61,3.29c6.04,3.49,15.81,3.49,21.83,0a10.053,10.053,0,0,0,3.63-3.29A5.774,5.774,0,0,0,1090.455,556.43Z"/><path class="g" d="M1085.515,540.34c.14.06.28.14.41.21,3.03,1.74,4.53,4.03,4.53,6.31a5.662,5.662,0,0,1-.03.58,5.99,5.99,0,0,1-.25,1.14,1.56,1.56,0,0,1-.14.33,5.632,5.632,0,0,1-.44.89c-.09.13-.17.27-.27.4a7.3,7.3,0,0,1-.72.88c-.17.19-.37.37-.57.56a6.088,6.088,0,0,1-.47.39,12.4,12.4,0,0,1-1.64,1.13c-.32.18-.64.35-.97.51-.13.07-.26.13-.4.19q-.465.21-.96.39c-.36.14-.72.28-1.09.39-.27.08-.55.17-.82.24-.33.09-.65.18-.97.25-.42.1-.84.19-1.27.26-.31.05-.63.1-.96.14a5.4,5.4,0,0,1-.58.07c-.34.05-.67.07-1.01.09-.2.02-.41.03-.61.03-.42.03-.85.04-1.27.04s-.84-.01-1.27-.04q-.3,0-.6-.03c-.5-.03-1-.08-1.49-.15q-.525-.06-1.02-.15c-.45-.07-.89-.16-1.33-.26-.33-.07-.66-.16-1-.26-.25-.07-.51-.15-.77-.23h-.02c-.33-.11-.66-.23-.98-.35-.37-.13-.73-.28-1.08-.44a2.638,2.638,0,0,1-.38-.18c-.33-.16-.67-.33-.98-.51a12.828,12.828,0,0,1-1.62-1.13,4.65,4.65,0,0,1-.47-.39c-.2-.19-.4-.37-.57-.56a6.141,6.141,0,0,1-.58-.68c-.09-.11-.16-.22-.24-.33a2.48,2.48,0,0,1-.17-.27,5.642,5.642,0,0,1-.44-.89c-.05-.11-.1-.22-.14-.33a5.99,5.99,0,0,1-.25-1.14,5.628,5.628,0,0,1-.03-.58c0-2.28,1.5-4.57,4.51-6.31.14-.07.29-.16.42-.22"/><path class="g" d="M1085.515,517.98v28.47c0,1.54-1.02,3.1-3.07,4.29a16.4,16.4,0,0,1-14.85,0c-2.05-1.19-3.08-2.75-3.08-4.29V517.98"/><path class="h" d="M1079.125,512.39a12.833,12.833,0,0,1,3.32,1.3c2.05,1.18,3.07,2.72,3.07,4.28v.01c0,1.55-1.02,3.1-3.07,4.29a16.4,16.4,0,0,1-14.85,0c-2.05-1.19-3.08-2.74-3.08-4.29v-.01c0-1.56,1.03-3.1,3.08-4.28a12.27,12.27,0,0,1,3.31-1.29"/><path class="g" d="M1080.135,514.14v3.35a2.517,2.517,0,0,1-1.5,2.08,7.906,7.906,0,0,1-7.24,0,2.5,2.5,0,0,1-1.49-2.08v-3.2"/><path class="g" d="M1076.805,511.38a5.879,5.879,0,0,1,1.83.68,2.806,2.806,0,0,1,.49.33,2.261,2.261,0,0,1,1.01,1.75,2.53,2.53,0,0,1-1.5,2.09,7.966,7.966,0,0,1-7.24,0,2.605,2.605,0,0,1-1.49-1.94v-.15h.01a2.217,2.217,0,0,1,.99-1.74,4.681,4.681,0,0,1,.49-.34,6.033,6.033,0,0,1,1.84-.68"/><path class="g" d="M1076.805,505.32v8.51a.891.891,0,0,1-.53.73,2.8,2.8,0,0,1-2.52,0,.9.9,0,0,1-.52-.73v-8.51"/><path class="g" d="M1076.805,505.32a.891.891,0,0,1-.53.72,2.8,2.8,0,0,1-2.52,0,.765.765,0,0,1,0-1.45,2.735,2.735,0,0,1,2.52,0A.891.891,0,0,1,1076.805,505.32Z"/><path class="f" d="M953.295,651.77l-.04,10.02-10.57-2.52-5.91-1.3-11.34-2.49a22.311,22.311,0,0,0,10.91-2.61c.15-.09.29-.18.43-.26,2.74-1.71,4.1-3.88,4.1-4.54Z"/><path class="f" d="M953.255,661.79l-11.44,3.9-7.1-1.62-9.28-2.12v-6.47l11.34,2.49,5.91,1.3Z"/><path class="f" d="M914.095,652.61c.14.08.27.17.42.26a22.351,22.351,0,0,0,10.92,2.61v6.47l9.28,2.12a8.964,8.964,0,0,1-1.22.83v.01a.076.076,0,0,0-.04.02,12.307,12.307,0,0,1-2.9,1.21,18.944,18.944,0,0,1-10.24,0,12.307,12.307,0,0,1-2.9-1.21.076.076,0,0,0-.04-.02c-2.18-1.27-3.28-2.94-3.28-4.59Z"/><path d="M925.435,596.55c1.44,0,2.6.6,2.6,1.34s-1.16,1.34-2.6,1.34-2.59-.6-2.59-1.34S924.005,596.55,925.435,596.55Z"/><path class="g" d="M933.495,666.7v4.46a5.96,5.96,0,0,1-2.36,4.62,8.08,8.08,0,0,1-2.06,1.21,9.749,9.749,0,0,1-7.28,0,8.08,8.08,0,0,1-2.06-1.21,5.96,5.96,0,0,1-2.36-4.62V666.7"/><path class="g" d="M917.375,664.91v1.79a5.96,5.96,0,0,0,2.36,4.62,8.081,8.081,0,0,0,2.06,1.21,9.75,9.75,0,0,0,7.28,0,8.081,8.081,0,0,0,2.06-1.21,5.96,5.96,0,0,0,2.36-4.62v-1.79"/><path class="g" d="M934.715,664.07a8.964,8.964,0,0,1-1.22.83v.01a.076.076,0,0,0-.04.02,12.307,12.307,0,0,1-2.9,1.21,18.944,18.944,0,0,1-10.24,0,12.307,12.307,0,0,1-2.9-1.21.076.076,0,0,0-.04-.02c-2.18-1.27-3.28-2.94-3.28-4.59v-7.71"/><path class="g" d="M932.095,624.07c.29-.07.56-.15.83-.24"/><path class="g" d="M910.845,643.49c-.56-1.83-.84-16.89-.84-17.87v-9.57"/><path class="g" d="M913.125,645.99c-.27-.21-.53-.42-.76-.63"/><path class="g" d="M938.935,644.93a9.664,9.664,0,0,1-1.42,1.23"/><path class="g" d="M939.975,643.62a7.367,7.367,0,0,1-.65.88"/><path class="g" d="M940.025,643.49a.333.333,0,0,1-.05.12"/><path class="g" d="M940.705,632.88c-.13,4.22-.34,8.96-.62,10.37"/><path class="g" d="M940.775,630.4c-.01.24-.01.48-.02.73"/><path class="g" d="M940.875,616.05v9.57c0,.32-.03,2.21-.1,4.66v.12l.1,17.67"/><path class="g" d="M925.435,655.48a22.351,22.351,0,0,1-10.92-2.61c-.15-.09-.28-.18-.42-.26-2.73-1.71-4.1-3.88-4.1-4.54V630.11c.02.43.31,11.83.85,13.38a.333.333,0,0,0,.05.12,9.109,9.109,0,0,0,2.23,2.38,12.4,12.4,0,0,0,1.39.92c6.04,3.48,15.8,3.48,21.83,0,.42-.24.81-.5,1.17-.75a11.627,11.627,0,0,0,1.42-1.23c.13-.14.26-.28.39-.43a8.65,8.65,0,0,0,.65-.88v-.01a.333.333,0,0,0,.05-.12,1.045,1.045,0,0,0,.06-.24,99.56,99.56,0,0,0,.62-10.37c.02-.69.04-1.3.05-1.75.01-.35.01-.61.02-.75"/><path class="g" d="M935.935,609.53a3.16,3.16,0,0,1,.41.21c3.03,1.74,4.53,4.02,4.53,6.31a5.243,5.243,0,0,1-.28,1.71,2.437,2.437,0,0,1-.14.34,5.642,5.642,0,0,1-.44.89c-.09.13-.17.27-.27.4a7.31,7.31,0,0,1-.72.88c-.17.18-.37.37-.57.56-.15.13-.31.27-.47.39a11.48,11.48,0,0,1-1.64,1.12c-.32.19-.64.36-.97.52-.13.06-.26.13-.4.19-.31.13-.63.27-.96.39-.36.14-.72.27-1.09.39-.27.08-.55.17-.83.24-.32.09-.64.17-.96.25-.42.1-.84.18-1.27.26-.31.05-.63.1-.96.13a3.847,3.847,0,0,1-.58.08,8.581,8.581,0,0,1-1.02.08,3.94,3.94,0,0,1-.6.04c-.42.03-.85.04-1.27.04s-.84-.01-1.27-.04a4.029,4.029,0,0,1-.6-.04,14.733,14.733,0,0,1-1.49-.14q-.525-.06-1.02-.15c-.45-.08-.89-.16-1.33-.26-.33-.08-.66-.16-1-.26-.26-.07-.51-.15-.77-.23h-.02c-.33-.12-.66-.23-.98-.35-.37-.14-.73-.28-1.08-.45a2.594,2.594,0,0,1-.38-.17c-.33-.16-.67-.33-.98-.52a12.607,12.607,0,0,1-1.63-1.12,5.894,5.894,0,0,1-.46-.39c-.2-.19-.4-.38-.57-.56a6.147,6.147,0,0,1-.58-.68c-.09-.11-.16-.22-.24-.33-.06-.09-.12-.18-.17-.27a4.888,4.888,0,0,1-.44-.89c-.05-.11-.1-.23-.14-.34a5.733,5.733,0,0,1-.25-1.13,5.794,5.794,0,0,1-.03-.58c0-2.29,1.5-4.57,4.51-6.31.14-.08.29-.16.42-.22"/><path class="g" d="M935.935,601.67v13.97c0,1.54-1.02,3.1-3.07,4.28a16.4,16.4,0,0,1-14.85,0c-2.05-1.18-3.08-2.74-3.08-4.28V601.67"/><path class="h" d="M920.335,597.83h-.01v.15"/><path class="h" d="M935.935,601.67c0,1.54-1.02,3.1-3.07,4.28a16.4,16.4,0,0,1-14.85,0c-2.05-1.18-3.08-2.74-3.08-4.28v-.01c0-1.56,1.03-3.1,3.08-4.29a12.256,12.256,0,0,1,3.31-1.28,2.25,2.25,0,0,0-.96,1.48"/><path class="g" d="M928.255,600.3a6.546,6.546,0,0,0,.8-.38,2.755,2.755,0,0,0,1.48-1.8"/><path class="g" d="M923.575,600.58a8.343,8.343,0,0,0,3.72,0"/><path class="g" d="M920.375,598.27a2.341,2.341,0,0,0,.57.99,3.819,3.819,0,0,0,.87.66,6.546,6.546,0,0,0,.8.38"/><path class="g" d="M930.555,597.89v3.29a2.53,2.53,0,0,1-1.5,2.08,7.966,7.966,0,0,1-7.24,0,2.516,2.516,0,0,1-1.49-2.08v-3.2a.879.879,0,0,0,.02.16"/><path class="g" d="M930.555,597.87v-.04a2.231,2.231,0,0,0-1.01-1.75,12.817,12.817,0,0,1,3.32,1.29c2.05,1.19,3.07,2.73,3.07,4.29v.01"/><path class="g" d="M930.555,597.89a1.784,1.784,0,0,1-.02.23c-.12.91-1,1.7-2.28,2.18a6.367,6.367,0,0,1-.96.28,8.748,8.748,0,0,1-3.72,0,6.729,6.729,0,0,1-.96-.28,4.342,4.342,0,0,1-1.67-1.04,1.978,1.978,0,0,1-.57-.99.308.308,0,0,1-.03-.13,2.117,2.117,0,0,1-.02-.25.127.127,0,0,1,.01-.06.582.582,0,0,1,.03-.26c.27-1.45,2.44-2.58,5.07-2.58,2.82,0,5.1,1.29,5.12,2.88Z"/><path class="h" d="M953.255,661.79l-11.44,3.9-7.1-1.62-9.28-2.12v-6.47"/><path class="h" d="M953.255,661.79l-10.57-2.52-5.91-1.3-11.34-2.49a22.311,22.311,0,0,0,10.91-2.61c.15-.09.29-.18.43-.26,2.74-1.71,4.1-3.88,4.1-4.54l12.42,3.7Z"/><path class="f" d="M965.295,675.17a22.351,22.351,0,0,0,10.92,2.61v6.47l9.28,2.12a8.963,8.963,0,0,1-1.22.83v.01a.076.076,0,0,0-.04.02,12.3,12.3,0,0,1-2.9,1.21,18.944,18.944,0,0,1-10.24,0,12.3,12.3,0,0,1-2.9-1.21.076.076,0,0,0-.04-.02c-2.18-1.27-3.28-2.94-3.28-4.59v-7.71C965.015,674.99,965.145,675.08,965.295,675.17Z"/><path class="f" d="M1004.035,684.09l-11.44,3.9-7.1-1.62-9.28-2.12v-6.47l11.34,2.49,5.91,1.3Z"/><path class="f" d="M1004.075,674.07l-.04,10.02-10.57-2.52-5.91-1.3-11.34-2.49a22.312,22.312,0,0,0,10.91-2.61c.15-.09.29-.18.43-.26,2.74-1.71,4.1-3.88,4.1-4.54Z"/><ellipse cx="2.59" cy="1.34" rx="2.59" ry="1.34" transform="translate(973.625 618.84)"/><path class="g" d="M984.275,689v4.46a5.96,5.96,0,0,1-2.36,4.62,8.079,8.079,0,0,1-2.06,1.21,9.749,9.749,0,0,1-7.28,0,8.079,8.079,0,0,1-2.06-1.21,5.96,5.96,0,0,1-2.36-4.62V689"/><path class="g" d="M968.155,687.21V689a5.96,5.96,0,0,0,2.36,4.62,8.079,8.079,0,0,0,2.06,1.21,9.749,9.749,0,0,0,7.28,0,8.079,8.079,0,0,0,2.06-1.21,5.96,5.96,0,0,0,2.36-4.62v-1.79"/><path class="g" d="M985.495,686.37a8.963,8.963,0,0,1-1.22.83v.01a.076.076,0,0,0-.04.02,12.3,12.3,0,0,1-2.9,1.21,18.944,18.944,0,0,1-10.24,0,12.3,12.3,0,0,1-2.9-1.21.076.076,0,0,0-.04-.02c-2.18-1.27-3.28-2.94-3.28-4.59v-7.71"/><path class="g" d="M961.625,665.78c-.56-1.82-.85-16.89-.85-17.87v-9.57"/><path class="g" d="M991.485,655.18c-.13,4.24-.34,9-.62,10.38"/><path class="g" d="M991.555,652.7c-.01.23-.01.48-.02.73"/><path class="g" d="M991.655,638.34v9.57c0,.33-.03,2.22-.1,4.67v.12l.1,17.67"/><path class="g" d="M976.215,677.78a22.351,22.351,0,0,1-10.92-2.61c-.15-.09-.28-.18-.42-.26-2.73-1.71-4.1-3.88-4.1-4.54V652.41c.02.43.31,11.79.85,13.37a.32.32,0,0,0,.05.13,9.951,9.951,0,0,0,3.62,3.3c6.04,3.48,15.8,3.48,21.83,0a10.241,10.241,0,0,0,3.63-3.3,1.018,1.018,0,0,0,.11-.35,99.194,99.194,0,0,0,.62-10.38c.02-.69.04-1.3.05-1.75.01-.35.01-.61.02-.75"/><path class="g" d="M986.715,631.82c.13.06.27.14.41.21,3.02,1.74,4.53,4.03,4.53,6.31a3.766,3.766,0,0,1-.04.58,5.307,5.307,0,0,1-.25,1.14,1.505,1.505,0,0,1-.13.33,4.655,4.655,0,0,1-.45.89,4.815,4.815,0,0,1-.27.41,7.966,7.966,0,0,1-.71.87c-.18.19-.37.37-.57.56-.15.13-.31.27-.47.39a13.1,13.1,0,0,1-1.64,1.13c-.32.18-.65.36-.98.52-.12.06-.26.12-.39.18-.31.14-.63.27-.97.4s-.71.27-1.08.38c-.27.09-.56.17-.83.25-.32.08-.64.17-.96.24-.42.1-.84.19-1.28.26-.3.05-.62.1-.96.14a3.543,3.543,0,0,1-.58.07,8.245,8.245,0,0,1-1.01.09c-.2.02-.41.04-.61.04-.42.02-.85.03-1.27.03s-.84-.01-1.27-.03a5.84,5.84,0,0,1-.59-.04c-.51-.03-1-.08-1.5-.15-.34-.04-.69-.09-1.02-.15-.44-.07-.89-.16-1.32-.26-.33-.07-.67-.16-1-.26-.26-.07-.52-.14-.78-.23h-.01c-.33-.11-.67-.22-.99-.35a11.405,11.405,0,0,1-1.07-.44c-.14-.05-.26-.11-.39-.17-.33-.16-.66-.34-.97-.52a12.275,12.275,0,0,1-1.63-1.13c-.16-.12-.32-.26-.47-.39-.2-.19-.39-.37-.57-.56a6.142,6.142,0,0,1-.58-.68c-.08-.11-.16-.22-.23-.33a2.53,2.53,0,0,1-.18-.27,5.247,5.247,0,0,1-.44-.89c-.05-.11-.1-.22-.14-.33a5.273,5.273,0,0,1-.24-1.14,3.766,3.766,0,0,1-.04-.58c0-2.28,1.51-4.57,4.52-6.31.13-.07.28-.16.42-.22"/><path class="g" d="M986.715,623.96v13.97c0,1.55-1.03,3.1-3.07,4.29a16.417,16.417,0,0,1-14.86,0c-2.05-1.19-3.07-2.74-3.07-4.29V623.96"/><path class="h" d="M971.105,620.12h-.01v.15"/><path class="h" d="M986.715,623.96c0,1.55-1.03,3.1-3.07,4.29a16.418,16.418,0,0,1-14.86,0c-2.05-1.19-3.07-2.74-3.07-4.29v-.01c0-1.55,1.02-3.1,3.07-4.28a12.4,12.4,0,0,1,3.31-1.29,2.273,2.273,0,0,0-.96,1.48"/><path class="g" d="M978.135,622.86a6,6,0,0,0,1.69-.65,2.773,2.773,0,0,0,1.49-1.8"/><path class="g" d="M971.135,620.54c.01.01.01.03.02.05a2.317,2.317,0,0,0,.19.47,3.278,3.278,0,0,0,1.25,1.15,5.793,5.793,0,0,0,1.24.53"/><path class="g" d="M981.335,620.18v3.29a2.557,2.557,0,0,1-1.51,2.09,7.946,7.946,0,0,1-7.23,0,2.543,2.543,0,0,1-1.5-2.09v-3.2a1.48,1.48,0,0,0,.03.19"/><path class="g" d="M981.335,620.16v-.04a2.275,2.275,0,0,0-1.02-1.75,12.9,12.9,0,0,1,3.33,1.3c2.04,1.18,3.07,2.73,3.07,4.28v.01"/><path class="g" d="M981.335,620.18a1.782,1.782,0,0,1-.02.23c-.15,1.11-1.42,2.05-3.18,2.45a8.357,8.357,0,0,1-1.92.22,8.094,8.094,0,0,1-2.38-.34,4.06,4.06,0,0,1-2.49-1.68,1.454,1.454,0,0,1-.19-.47c-.01-.02-.02-.03-.02-.05a.248.248,0,0,1-.01-.08,1.332,1.332,0,0,1-.03-.28.127.127,0,0,1,.01-.06.582.582,0,0,1,.03-.26c.27-1.45,2.44-2.57,5.08-2.57,2.82,0,5.1,1.28,5.12,2.87Z"/><path class="h" d="M1004.035,684.09l-11.44,3.9-7.1-1.62-9.28-2.12v-6.47"/><path class="h" d="M1004.035,684.09l-10.57-2.52-5.91-1.3-11.34-2.49a22.312,22.312,0,0,0,10.91-2.61c.15-.09.29-.18.43-.26,2.74-1.71,4.1-3.88,4.1-4.54l12.42,3.7Z"/><path class="f" d="M1016.065,697.46a22.351,22.351,0,0,0,10.92,2.61v6.47l9.28,2.12a8.958,8.958,0,0,1-1.22.83v.01a.076.076,0,0,0-.04.02,12.3,12.3,0,0,1-2.9,1.21,18.944,18.944,0,0,1-10.24,0,12.3,12.3,0,0,1-2.9-1.21.076.076,0,0,0-.04-.02c-2.18-1.27-3.28-2.94-3.28-4.59V697.2C1015.785,697.28,1015.915,697.37,1016.065,697.46Z"/><path class="f" d="M1054.805,706.38l-11.44,3.9-7.1-1.62-9.28-2.12v-6.47l11.34,2.49,5.91,1.3Z"/><path class="f" d="M1054.845,696.36l-.04,10.02-10.57-2.52-5.91-1.3-11.34-2.49a22.312,22.312,0,0,0,10.91-2.61c.15-.09.29-.18.43-.26,2.74-1.71,4.1-3.88,4.1-4.54Z"/><path d="M1026.985,643.82c-1.43,0-2.59-.6-2.59-1.34s1.16-1.34,2.59-1.34,2.6.6,2.6,1.34S1028.425,643.82,1026.985,643.82Z"/><path class="g" d="M1035.045,711.29v4.46a5.96,5.96,0,0,1-2.36,4.62,8.079,8.079,0,0,1-2.06,1.21,9.749,9.749,0,0,1-7.28,0,8.079,8.079,0,0,1-2.06-1.21,5.96,5.96,0,0,1-2.36-4.62v-4.46"/><path class="g" d="M1018.925,709.5v1.79a5.96,5.96,0,0,0,2.36,4.62,8.079,8.079,0,0,0,2.06,1.21,9.749,9.749,0,0,0,7.28,0,8.079,8.079,0,0,0,2.06-1.21,5.96,5.96,0,0,0,2.36-4.62V709.5"/><path class="g" d="M1036.265,708.66a8.958,8.958,0,0,1-1.22.83v.01a.076.076,0,0,0-.04.02,12.3,12.3,0,0,1-2.9,1.21,18.944,18.944,0,0,1-10.24,0,12.3,12.3,0,0,1-2.9-1.21.076.076,0,0,0-.04-.02c-2.18-1.27-3.28-2.94-3.28-4.59V697.2"/><path class="g" d="M1033.645,668.66a7.247,7.247,0,0,0,.83-.25"/><path class="g" d="M1012.4,688.07c-.56-1.82-.84-16.88-.84-17.87v-9.56"/><path class="g" d="M1013.485,689.52a7.745,7.745,0,0,1-1.03-1.32.334.334,0,0,1-.03-.06"/><path class="g" d="M1041.525,688.2a7.468,7.468,0,0,1-.65.89"/><path class="g" d="M1041.6,687.98c-.01.04-.02.07-.03.1"/><path class="g" d="M1042.255,677.47c-.13,4.24-.34,9-.62,10.38"/><path class="g" d="M1042.325,674.99c-.01.23-.01.48-.02.73"/><path class="g" d="M1042.425,660.64v9.56c0,.33-.03,2.22-.1,4.67v.12l.1,17.67"/><path class="g" d="M1026.985,700.07a22.351,22.351,0,0,1-10.92-2.61c-.15-.09-.28-.18-.42-.26-2.73-1.71-4.1-3.88-4.1-4.54V674.7c.02.43.31,11.79.85,13.37a.091.091,0,0,0,.03.07.142.142,0,0,0,.02.06,7.443,7.443,0,0,0,1.04,1.32,11.248,11.248,0,0,0,2.58,1.98c6.04,3.48,15.8,3.48,21.83,0a11.238,11.238,0,0,0,2.98-2.41,8.773,8.773,0,0,0,.65-.89.334.334,0,0,0,.05-.12c.01-.03.02-.06.03-.1s.02-.08.03-.13a99.211,99.211,0,0,0,.62-10.38c.02-.69.04-1.3.05-1.75.01-.35.01-.61.02-.75"/><path class="g" d="M1037.485,654.12a3.165,3.165,0,0,1,.41.21c3.03,1.74,4.53,4.02,4.53,6.31a5.243,5.243,0,0,1-.28,1.71,2.339,2.339,0,0,1-.14.33,4.9,4.9,0,0,1-.44.89c-.09.14-.17.28-.27.41a8.175,8.175,0,0,1-.72.88c-.17.18-.37.37-.57.55-.15.14-.31.27-.47.4a13.4,13.4,0,0,1-1.64,1.12c-.32.19-.64.36-.97.52-.13.06-.26.12-.4.19-.31.13-.63.27-.96.39-.36.14-.72.27-1.09.38-.27.09-.55.18-.83.25-.32.09-.64.17-.96.25-.42.1-.84.18-1.27.26-.31.05-.63.09-.96.13a5.765,5.765,0,0,1-.58.08,8.594,8.594,0,0,1-1.02.08,3.948,3.948,0,0,1-.6.04c-.42.02-.85.04-1.27.04s-.84-.02-1.27-.04a4.036,4.036,0,0,1-.6-.04,12.327,12.327,0,0,1-1.49-.15c-.35-.03-.69-.08-1.03-.14-.44-.08-.88-.16-1.32-.26-.33-.08-.66-.16-1-.26-.26-.08-.51-.15-.77-.24h-.02c-.33-.11-.66-.22-.98-.34q-.555-.21-1.08-.45c-.13-.05-.26-.11-.38-.17-.33-.16-.67-.33-.98-.52a14.984,14.984,0,0,1-1.63-1.12,6,6,0,0,1-.46-.4c-.2-.18-.4-.37-.57-.55a7.21,7.21,0,0,1-.58-.68c-.09-.11-.16-.22-.24-.33a2.613,2.613,0,0,1-.17-.28,4.33,4.33,0,0,1-.44-.89c-.05-.11-.1-.22-.14-.33a5.243,5.243,0,0,1-.28-1.71c0-2.29,1.5-4.57,4.51-6.31.14-.08.29-.16.42-.23"/><path class="g" d="M1037.485,646.26v13.97c0,1.54-1.02,3.1-3.07,4.28a16.4,16.4,0,0,1-14.85,0c-2.05-1.18-3.08-2.74-3.08-4.28V646.26"/><path class="h" d="M1021.885,642.42h-.01v.15"/><path class="h" d="M1037.485,646.26c0,1.54-1.02,3.1-3.07,4.28a16.4,16.4,0,0,1-14.85,0c-2.05-1.18-3.08-2.74-3.08-4.28v-.01c0-1.56,1.03-3.1,3.08-4.29a11.938,11.938,0,0,1,3.31-1.28,2.228,2.228,0,0,0-.96,1.48"/><path class="g" d="M1029.805,644.89a5.35,5.35,0,0,0,.8-.38,2.755,2.755,0,0,0,1.48-1.8"/><path class="g" d="M1024.995,645.14a8.517,8.517,0,0,0,3.52.1"/><path class="g" d="M1023.375,644.52a6.368,6.368,0,0,0,.79.37"/><path class="g" d="M1021.925,642.86a2.826,2.826,0,0,0,1.44,1.65"/><path class="g" d="M1032.1,642.48v3.28a2.53,2.53,0,0,1-1.5,2.09,7.966,7.966,0,0,1-7.24,0,2.517,2.517,0,0,1-1.49-2.09v-3.19a.874.874,0,0,0,.02.16"/><path class="g" d="M1032.1,642.46v-.04a2.231,2.231,0,0,0-1.01-1.75,12.472,12.472,0,0,1,3.32,1.29c2.05,1.19,3.07,2.73,3.07,4.29v.01"/><path class="g" d="M1032.1,642.48a1.784,1.784,0,0,1-.02.23c-.12.91-1,1.71-2.28,2.18a7.17,7.17,0,0,1-1.29.35,9.469,9.469,0,0,1-1.53.13,8.421,8.421,0,0,1-1.99-.23,6.709,6.709,0,0,1-.83-.25,5.756,5.756,0,0,1-.79-.37.01.01,0,0,1-.01-.01,2.706,2.706,0,0,1-1.44-1.65.308.308,0,0,1-.03-.13,2.1,2.1,0,0,1-.02-.25.127.127,0,0,1,.01-.06.582.582,0,0,1,.03-.26c.27-1.45,2.44-2.58,5.07-2.58,2.82,0,5.1,1.29,5.12,2.88Z"/><path class="h" d="M1054.805,706.38l-11.44,3.9-7.1-1.62-9.28-2.12v-6.47"/><path class="h" d="M1054.805,706.38l-10.57-2.52-5.91-1.3-11.34-2.49a22.312,22.312,0,0,0,10.91-2.61c.15-.09.29-.18.43-.26,2.74-1.71,4.1-3.88,4.1-4.54l12.42,3.7Z"/><path class="f" d="M1066.425,719.49c.14.08.27.17.42.26a22.351,22.351,0,0,0,10.92,2.61v6.47l9.28,2.12a8.957,8.957,0,0,1-1.22.83v.01a.076.076,0,0,0-.04.02,12.306,12.306,0,0,1-2.9,1.21,18.944,18.944,0,0,1-10.24,0,12.306,12.306,0,0,1-2.9-1.21.076.076,0,0,0-.04-.02c-2.18-1.27-3.28-2.94-3.28-4.59Z"/><path class="f" d="M1105.585,728.67l-11.44,3.9-7.1-1.62-9.28-2.12v-6.47l11.34,2.49,5.91,1.3Z"/><path class="f" d="M1105.625,718.65l-.04,10.02-10.57-2.52-5.91-1.3-11.34-2.49a22.312,22.312,0,0,0,10.91-2.61c.15-.09.29-.18.43-.26,2.74-1.71,4.1-3.88,4.1-4.54Z"/><ellipse cx="2.59" cy="1.34" rx="2.59" ry="1.34" transform="translate(1075.175 663.43)"/><path class="g" d="M1085.825,733.58v4.46a5.96,5.96,0,0,1-2.36,4.62,8.079,8.079,0,0,1-2.06,1.21,9.749,9.749,0,0,1-7.28,0,8.079,8.079,0,0,1-2.06-1.21,5.96,5.96,0,0,1-2.36-4.62v-4.46"/><path class="g" d="M1069.7,731.79v1.79a5.96,5.96,0,0,0,2.36,4.62,8.079,8.079,0,0,0,2.06,1.21,9.749,9.749,0,0,0,7.28,0,8.078,8.078,0,0,0,2.06-1.21,5.96,5.96,0,0,0,2.36-4.62v-1.79"/><path class="g" d="M1087.045,730.95a8.957,8.957,0,0,1-1.22.83v.01a.076.076,0,0,0-.04.02,12.306,12.306,0,0,1-2.9,1.21,18.944,18.944,0,0,1-10.24,0,12.306,12.306,0,0,1-2.9-1.21.076.076,0,0,0-.04-.02c-2.18-1.27-3.28-2.94-3.28-4.59v-7.71"/><path class="g" d="M1087.695,689.74c.33-.16.67-.33.98-.51"/><path class="g" d="M1084.425,690.95c.28-.07.55-.14.83-.24"/><path class="g" d="M1063.115,710.12a1.715,1.715,0,0,1-.05-.26c-.49-3.2-.74-16.44-.74-17.36v-9.57"/><path class="g" d="M1063.225,710.49a.6.6,0,0,1-.08-.22"/><path class="g" d="M1065.675,713.04a9.662,9.662,0,0,1-1.42-1.23"/><path class="g" d="M1088.095,714.11c-.39.2-.79.39-1.21.57s-.84.34-1.28.49a22.256,22.256,0,0,1-4.17.98,26.54,26.54,0,0,1-7.34,0,22.256,22.256,0,0,1-4.17-.98c-.44-.15-.87-.31-1.29-.49s-.82-.37-1.21-.57"/><path class="g" d="M1091.265,711.81a10.314,10.314,0,0,1-1.43,1.23"/><path class="g" d="M1092.385,710.27a.6.6,0,0,1-.08.22"/><path class="g" d="M1093.035,699.76c-.13,4.22-.34,8.96-.62,10.37"/><path class="g" d="M1093.1,697.28c-.01.24-.01.48-.02.73"/><path class="g" d="M1093.2,682.93v9.57c0,.32-.03,2.21-.1,4.66v.12l.1,17.67"/><path class="g" d="M1077.765,722.36a22.351,22.351,0,0,1-10.92-2.61c-.15-.09-.28-.18-.42-.26-2.73-1.71-4.1-3.88-4.1-4.54V696.99c.02.39.27,10.17.74,12.87a1,1,0,0,0,.05.26.334.334,0,0,0,.03.15.681.681,0,0,0,.08.22,7.743,7.743,0,0,0,1.03,1.32,10.21,10.21,0,0,0,1.42,1.23,13.087,13.087,0,0,0,1.17.75c.19.11.38.21.58.32.39.2.79.39,1.21.57s.85.34,1.29.49a23.942,23.942,0,0,0,4.17.98,27.338,27.338,0,0,0,7.34,0,23.942,23.942,0,0,0,4.17-.98c.44-.15.87-.32,1.28-.49s.82-.37,1.21-.57c.2-.11.39-.21.58-.32.41-.24.8-.49,1.16-.75a10.933,10.933,0,0,0,1.43-1.23,7.817,7.817,0,0,0,1.04-1.32.684.684,0,0,0,.08-.22.577.577,0,0,0,.03-.14,99.577,99.577,0,0,0,.62-10.37c.02-.69.04-1.3.05-1.75.01-.35.01-.61.02-.75"/><path class="g" d="M1088.265,676.41c.13.06.27.14.41.21,3.02,1.74,4.53,4.03,4.53,6.31a5.645,5.645,0,0,1-.04.58,5.31,5.31,0,0,1-.25,1.14,1.511,1.511,0,0,1-.13.33,4.958,4.958,0,0,1-.45.89,4.653,4.653,0,0,1-.27.4,7.2,7.2,0,0,1-.71.88c-.18.19-.37.37-.57.56-.15.13-.31.27-.47.39a13.091,13.091,0,0,1-1.64,1.13c-.32.18-.65.35-.98.51-.12.07-.26.13-.39.19-.31.13-.63.27-.97.39-.36.14-.71.28-1.08.39-.28.08-.56.17-.83.24-.32.09-.64.18-.96.25-.42.1-.84.19-1.28.26-.3.05-.62.1-.96.14a5.108,5.108,0,0,1-.58.07c-.33.05-.67.07-1.01.09-.2.02-.41.03-.61.03-.42.03-.85.04-1.27.04s-.84-.01-1.27-.04a5.822,5.822,0,0,1-.59-.03c-.51-.03-1-.08-1.5-.15-.34-.04-.69-.09-1.02-.15-.44-.07-.89-.16-1.32-.26-.33-.07-.67-.16-1-.26-.26-.07-.52-.15-.78-.23h-.01c-.33-.11-.67-.23-.99-.35a11.4,11.4,0,0,1-1.07-.44,2.753,2.753,0,0,1-.39-.18c-.33-.16-.66-.33-.97-.51a12.266,12.266,0,0,1-1.63-1.13c-.16-.12-.32-.26-.47-.39-.2-.19-.39-.37-.57-.56a6.136,6.136,0,0,1-.58-.68c-.08-.11-.16-.22-.23-.33a2.537,2.537,0,0,1-.18-.27,5.632,5.632,0,0,1-.44-.89c-.05-.11-.1-.22-.14-.33a5.277,5.277,0,0,1-.24-1.14,3.767,3.767,0,0,1-.04-.58c0-2.28,1.51-4.57,4.52-6.31.13-.07.28-.16.42-.22"/><path class="g" d="M1088.265,668.55v13.97c0,1.54-1.03,3.1-3.08,4.29a16.4,16.4,0,0,1-14.85,0c-2.05-1.19-3.07-2.75-3.07-4.29V668.55"/><path class="h" d="M1072.655,664.71h-.01v.15"/><path class="h" d="M1088.265,668.55c0,1.55-1.03,3.1-3.08,4.29a16.4,16.4,0,0,1-14.85,0c-2.05-1.19-3.07-2.74-3.07-4.29v-.01c0-1.56,1.02-3.1,3.07-4.28a12.4,12.4,0,0,1,3.31-1.29,2.272,2.272,0,0,0-.96,1.48"/><path class="g" d="M1079.3,667.54c.29-.06.58-.13.86-.21a5.841,5.841,0,0,0,1.22-.53,2.773,2.773,0,0,0,1.49-1.8"/><path class="g" d="M1077.765,667.67c.33,0,.66-.02.98-.05"/><path class="g" d="M1076.785,667.62c.3.03.61.05.92.05"/><path class="g" d="M1072.695,665.15a2.847,2.847,0,0,0,1.45,1.65,6.4,6.4,0,0,0,.79.38,6.689,6.689,0,0,0,.9.27"/><path class="g" d="M1082.885,664.77v3.29a2.531,2.531,0,0,1-1.51,2.08,7.885,7.885,0,0,1-7.23,0,2.517,2.517,0,0,1-1.5-2.08v-3.2a.453.453,0,0,0,.03.16"/><path class="g" d="M1082.885,664.75v-.04a2.274,2.274,0,0,0-1.02-1.75,12.7,12.7,0,0,1,3.32,1.3c2.05,1.18,3.08,2.72,3.08,4.28v.01"/><path class="g" d="M1082.885,664.77a1.784,1.784,0,0,1-.02.23c-.14,1.01-1.2,1.88-2.71,2.33a7.219,7.219,0,0,1-.86.21c-.19.03-.37.06-.55.08-.32.03-.65.05-.98.05h-.06c-.31,0-.62-.02-.92-.05a7.549,7.549,0,0,1-.95-.17,5.915,5.915,0,0,1-.9-.27,3.248,3.248,0,0,1-2.24-2.03.2.2,0,0,1-.02-.13,1.067,1.067,0,0,1-.03-.25.127.127,0,0,1,.01-.06.581.581,0,0,1,.03-.26c.27-1.45,2.44-2.57,5.08-2.57,2.82,0,5.1,1.28,5.12,2.87Z"/><path class="h" d="M1105.585,728.67l-11.44,3.9-7.1-1.62-9.28-2.12v-6.47"/><path class="h" d="M1105.585,728.67l-10.57-2.52-5.91-1.3-11.34-2.49a22.312,22.312,0,0,0,10.91-2.61c.15-.09.29-.18.43-.26,2.74-1.71,4.1-3.88,4.1-4.54l12.42,3.7Z"/><path class="i" d="M854.005,504.1a7.414,7.414,0,0,0,6.71,0,2.371,2.371,0,0,0,1.4-1.94V506a2.356,2.356,0,0,1-1.4,1.94,7.414,7.414,0,0,1-6.71,0,2.356,2.356,0,0,1-1.4-1.94v-3.84A2.331,2.331,0,0,0,854.005,504.1Z"/><path class="i" d="M860.715,504.1a7.414,7.414,0,0,1-6.71,0,2.044,2.044,0,0,1,0-3.88,7.477,7.477,0,0,1,6.71,0,2.044,2.044,0,0,1,0,3.88Z"/><path class="i" d="M832.555,486.19v3.84a2.356,2.356,0,0,1-1.4,1.93,7.414,7.414,0,0,1-6.71,0,2.356,2.356,0,0,1-1.4-1.93v-3.84a2.344,2.344,0,0,0,1.4,1.94,7.477,7.477,0,0,0,6.71,0A2.384,2.384,0,0,0,832.555,486.19Z"/><path class="i" d="M832.555,486.19a2.384,2.384,0,0,1-1.4,1.94,7.477,7.477,0,0,1-6.71,0,2.044,2.044,0,0,1,0-3.88,7.414,7.414,0,0,1,6.71,0A2.384,2.384,0,0,1,832.555,486.19Z"/><path d="M857.405,491.1,832.6,505.4l-2.28-1.27,24.81-14.31Z"/><path d="M846.765,527.75l2.63,1.52v1.75l-2.63-1.53v3.23l-1.82-.99V528.5l-2.58-1.54v-1.74l2.58,1.54v-2.9l1.82.99Z"/><path d="M815.955,509.87v2.61l-8.43-4.87V505Z"/><path class="h" d="M854.715,522.67l32.47-18.75v44.76l-32.47,18.75"/><path class="h" d="M801.945,492.21l32.48-18.75,52.76,30.46-32.47,18.76-52.77-30.46"/><line class="h" x1="0.01" transform="translate(801.935 492.21)"/><path class="h" d="M854.715,567.43l-52.77-30.46V492.21l52.77,30.46v44.76Z"/><path class="g" d="M849.615,541.11v17.82l-43.28-24.77V516.35Z"/><path class="h" d="M862.115,502.16V506a2.356,2.356,0,0,1-1.4,1.94,7.414,7.414,0,0,1-6.71,0,2.356,2.356,0,0,1-1.4-1.94v-3.84"/><path class="h" d="M862.115,502.16a2.371,2.371,0,0,1-1.4,1.94,7.414,7.414,0,0,1-6.71,0,2.044,2.044,0,0,1,0-3.88,7.477,7.477,0,0,1,6.71,0A2.384,2.384,0,0,1,862.115,502.16Z"/><path class="h" d="M832.555,486.19v3.84a2.356,2.356,0,0,1-1.4,1.93,7.414,7.414,0,0,1-6.71,0,2.356,2.356,0,0,1-1.4-1.93v-3.84"/><path class="h" d="M832.555,486.19a2.384,2.384,0,0,1-1.4,1.94,7.477,7.477,0,0,1-6.71,0,2.044,2.044,0,0,1,0-3.88,7.414,7.414,0,0,1,6.71,0A2.384,2.384,0,0,1,832.555,486.19Z"/><path class="j" d="M1167.825,630.38l-1.49,8.32-9.35,7.81,1.37-7.85,4.17-3.35,4.41-3.55a2.414,2.414,0,0,0,.86-1.39Z"/><path class="j" d="M1166.615,627.71a2.45,2.45,0,0,1,1.18,2.66,2.414,2.414,0,0,1-.86,1.39l-4.41,3.55-14.11-8.6,3.65-2.91.61-.49a4.861,4.861,0,0,1,5.41-.43Z"/><path class="j" d="M1166.335,638.7l-1.33,7.43-9.36,8.03,1.33-7.64.01-.01Z"/><path class="j" d="M1162.525,635.31l-4.17,3.35-8-5.09-5.86-3.74,3.92-3.12Z"/><path class="j" d="M1158.355,638.66l-1.37,7.85-.01.01-9.62-6.19a14,14,0,0,0-2.93-10.05l.07-.45,5.86,3.74Z"/><path class="j" d="M1156.975,646.52l-1.33,7.64-10.95-6.87a13.93,13.93,0,0,0,2.52-5.89c.06-.36.11-.71.14-1.07Z"/><path class="h" d="M1120.355,650.86c.08.23.16.47.22.71a9.251,9.251,0,0,1,.32,2.84c0,.13-.01.27-.02.4"/><path class="h" d="M1120.065,650.16c.07.14.13.29.19.44"/><path class="h" d="M1119.405,648.96a4.142,4.142,0,0,1,.35.57"/><path class="h" d="M1118.965,648.34a4.922,4.922,0,0,1,.44.61"/><path class="h" d="M1118.505,647.78a4.686,4.686,0,0,1,.46.54"/><path class="h" d="M1117.765,647.03a2.173,2.173,0,0,1,.27.26,3.421,3.421,0,0,1,.42.43"/><path class="h" d="M1116.825,646.29c.14.09.28.2.42.31"/><path class="h" d="M1115.595,645.58a5.7,5.7,0,0,1,.69.37"/><path class="h" d="M1114.965,645.31a6.133,6.133,0,0,1,.59.25"/><path class="h" d="M1113.945,644.97c.17.05.35.1.52.16"/><path class="h" d="M1113.235,644.82a3.006,3.006,0,0,1,.52.11"/><path class="h" d="M1112.135,644.68q.3.015.6.06"/><path class="h" d="M1116.715,661.81a9.356,9.356,0,0,1-10.84-15.24.833.833,0,0,1,.12-.08,9.278,9.278,0,0,1,2.53-1.33"/><path class="h" d="M1118.865,659.84a8.863,8.863,0,0,1-2.14,1.96"/><path class="h" d="M1120.485,656.79c-.06.19-.12.37-.19.56a8.822,8.822,0,0,1-.45.99"/><path class="h" d="M1120.745,655.72c-.03.17-.06.33-.1.5"/><path class="h" d="M1115.9,625.08a2.892,2.892,0,0,1-.68.62h-.01a3.376,3.376,0,0,1-2.48.52,3.425,3.425,0,0,1,1.17-6.75h.01a3.439,3.439,0,0,1,2.79,3.97,3.6,3.6,0,0,1-.69,1.54h-.01a.821.821,0,0,1-.09.1"/><path class="h" d="M1113.9,619.47a3.382,3.382,0,0,0-.78,1.65,3.422,3.422,0,0,0,2.78,3.96h.02"/><path class="h" d="M1136.415,639.12c.02.11.03.22.04.34"/><path class="h" d="M1126.245,653.56l-7.37,6.27a8.663,8.663,0,0,0,.97-1.49,8.822,8.822,0,0,0,.45-.99,5.261,5.261,0,0,0,.19-.56c.06-.18.11-.37.16-.57a4.015,4.015,0,0,0,.1-.5,6.639,6.639,0,0,0,.13-.91.17.17,0,0,0,.01-.07,1.82,1.82,0,0,0,.01-.33,8.71,8.71,0,0,0-.32-2.84,5.829,5.829,0,0,0-.22-.71c-.03-.08-.07-.17-.1-.26-.06-.15-.12-.29-.19-.44-.1-.21-.2-.42-.31-.63-.11-.19-.22-.39-.35-.57v-.01c-.14-.21-.28-.41-.44-.61v-.02c-.15-.19-.3-.37-.46-.54a.265.265,0,0,0-.05-.06,5.664,5.664,0,0,0-.42-.43,3.393,3.393,0,0,0-.27-.26c-.17-.15-.34-.29-.52-.43-.14-.11-.28-.21-.42-.31-.18-.12-.36-.24-.54-.34a5.7,5.7,0,0,0-.69-.37.076.076,0,0,0-.04-.02,4.352,4.352,0,0,0-.59-.25,4.231,4.231,0,0,0-.5-.18c-.17-.06-.34-.11-.52-.16a1.292,1.292,0,0,0-.19-.04,4.352,4.352,0,0,0-.52-.11,4.018,4.018,0,0,0-.5-.08q-.3-.045-.6-.06a9.292,9.292,0,0,0-3.61.48,9.488,9.488,0,0,0-2.64,1.42l.11-.09,10.14-8.58"/><path class="h" d="M1118.875,659.83l-.01.01-2.14,1.96-.01.01"/><path class="h" d="M1136.475,639.75v-.12a.127.127,0,0,1-.01-.06v-.04a.2.2,0,0,1-.01-.07,1.86,1.86,0,0,0-.04-.34,3.031,3.031,0,0,0-.06-.42,2.772,2.772,0,0,0-.05-.28l-.01-.01a.8.8,0,0,0-.05-.21l-.03-.12a.737.737,0,0,0-.05-.2c-.02-.1-.05-.21-.08-.31l-.03-.09c-.04-.13-.09-.27-.14-.39l-.15-.39c-.06-.13-.11-.25-.17-.38s-.12-.25-.19-.37c-.07-.14-.15-.28-.23-.41-.12-.2-.24-.39-.37-.57l-.02-.04c-.08-.1-.16-.21-.24-.31-.05-.07-.1-.14-.16-.21l-.15-.18c-.08-.1-.18-.2-.27-.31l-.29-.29c-.09-.09-.18-.17-.27-.25-.02-.02-.04-.05-.06-.07-.1-.08-.19-.16-.29-.24-.07-.06-.14-.12-.21-.17l-.02-.02a.137.137,0,0,0-.04-.03c-.09-.07-.2-.14-.3-.22-.15-.1-.3-.2-.46-.3-.12-.07-.23-.14-.35-.21-.26-.14-.53-.27-.8-.4-.08-.03-.15-.06-.23-.09h-.01a2.44,2.44,0,0,0-.24-.1c-.12-.05-.24-.08-.36-.12a5.908,5.908,0,0,0-.75-.21,5.05,5.05,0,0,0-.56-.12c-.17-.03-.36-.06-.53-.08a1.785,1.785,0,0,1-.23-.02h-.02c-.02-.01-.05,0-.07-.01-.04,0-.07-.01-.11-.01-.12-.01-.25-.01-.37-.01a2.435,2.435,0,0,0-.27-.01,9.329,9.329,0,0,0-1.4.11l-.36.06h-.01a5.459,5.459,0,0,0-.58.14c-.2.05-.38.1-.57.16s-.37.13-.55.21c-.07.03-.14.05-.21.08a.034.034,0,0,1-.02.01c-.1.05-.2.09-.29.14-.19.08-.37.18-.54.27s-.32.19-.48.29l-.02.02c-.09.05-.17.11-.25.16s-.16.11-.24.17c0,0-.02.01-.02.02-.12.08-.24.18-.36.27a1.766,1.766,0,0,0-.15.13,9.833,9.833,0,0,0-.81.77c-.05.06-.11.12-.16.18s-.11.13-.16.19c-.02.02-.03.04-.05.06-.12.15-.24.3-.35.46l-.01.01-.4.36-3,2.7c.05-.25.11-.5.18-.74l-7.11-10.47s-2.14-3.09-1.8-5.04a5.259,5.259,0,0,1,1.54-2.92l.03-.04.02-.02"/><path class="h" d="M1132.555,653.31a13.108,13.108,0,0,1-5.93.33c-.13-.03-.26-.05-.38-.08l4.41-4.03c.73-.67,1.52-1.29,2.3-1.91a9.335,9.335,0,0,0,3.49-6.36c.01-.1.02-.22.03-.32v-.04a1.028,1.028,0,0,0,.01-.17c.01-.12.01-.23.01-.34V640c0-.07-.01-.14-.01-.21"/><path class="h" d="M1144.695,647.29a14.284,14.284,0,0,1-2.25,2.41c-.16.14-.33.27-.51.41a14,14,0,0,1-6.12,2.62l-3.26.58a13.118,13.118,0,0,0,9.04-9.53c.06-.24.11-.5.15-.75a13.052,13.052,0,0,0-7.31-14.08l-10.02-5.82-8.5-4.94-.01-.01a5.168,5.168,0,0,0-1.97-.87,2.286,2.286,0,0,0-.25-.06,5.413,5.413,0,0,0-2.75.23,5.357,5.357,0,0,0-1.94,1.2l2.89-3.45.04-.04v-.01a5.831,5.831,0,0,1,2.11-1.3,5.664,5.664,0,0,1,2.96-.24c.08.01.17.03.26.05a5.639,5.639,0,0,1,2.13.95h.01l5.91,3.44"/><path class="h" d="M1125.325,617.96l5.64-4.65a2.909,2.909,0,0,1,3.35-.25l17.75,10.74"/><path class="h" d="M1143.515,629.22a14.2,14.2,0,0,0-4.17-2.99L1128.6,620"/><path class="h" d="M1128.605,620l-3.3-1.92.02-.12Z"/><path class="h" d="M1136.485,639.79h-.01v-.04A.06.06,0,0,1,1136.485,639.79Z"/><path class="h" d="M1144.425,630.28c-.29-.37-.59-.72-.91-1.06l.98.61"/><path class="h" d="M1144.495,629.83l3.92-3.12,3.65-2.91.61-.49a4.861,4.861,0,0,1,5.41-.43l8.53,4.83a2.45,2.45,0,0,1,1.18,2.66,2.414,2.414,0,0,1-.86,1.39l-4.41,3.55-4.17,3.35"/><path class="h" d="M1167.875,630.12l-.05.26-1.49,8.32-1.33,7.43-9.36,8.03"/><path class="h" d="M1156.975,646.52l-1.33,7.64-10.95-6.87a13.93,13.93,0,0,0,2.52-5.89c.06-.36.11-.71.14-1.07a14,14,0,0,0-2.93-10.05l.07-.45,5.86,3.74,8,5.09-1.37,7.85"/><line class="h" x2="14.11" y2="8.6" transform="translate(1148.415 626.71)"/><path class="h" d="M1166.335,638.7l-9.35,7.81-.01.01-9.62-6.19"/><path class="j" d="M1252.925,509.09l-8.36,4.97-29.89-17.45,8.36-4.97Z"/><path class="j" d="M1172.135,533.59v7.51l-21.79-12.73v-7.51l11,6.43Z"/><path class="j" d="M1202.875,551.81v7.5l-21.8-12.72v-7.51Z"/><path class="h" d="M1208.045,556.46l13.94,8.14V543.72l-30.8-17.98-7.29-4.26"/><line class="h" x2="4.01" y2="2.35" transform="translate(1177.065 538.37)"/><path class="h" d="M1161.355,508.32h-.01v7.76"/><path class="h" d="M1172.135,541.1l-21.79-12.73v-7.51"/><path class="h" d="M1202.875,559.31l-21.8-12.72v-7.51"/><path class="h" d="M1202.875,551.81l-21.8-12.73,9.87-5.45,21.81,12.73"/><path class="h" d="M1212.755,546.36v7.51l-4.71,2.59-5.17,2.85v-7.5l3.26-1.8Z"/><path class="h" d="M1183.9,521.48l-22.54-13.16,61.88-36.23,60.62,35.4L1222,543.71l-23.87-13.93-14.22-8.3"/><path class="h" d="M1183.905,521.48l28.78-16.85a4.254,4.254,0,0,1,4.28-.02l5.81,3.34a4.265,4.265,0,0,1,.03,7.38l-24.68,14.45-6.94-4.04-7.3-4.25.01-.01Z"/><path class="h" d="M1252.925,509.09l-8.36,4.97-29.89-17.45,8.36-4.97Z"/><path class="h" d="M1252.665,546.65,1222,564.6V543.69l61.86-36.2V528.4l-26.7,15.62"/><path class="h" d="M1172.135,533.59l-10.79-6.3-11-6.43,9.87-5.44,1.13.66,20.67,12.06"/><path class="h" d="M1182.015,528.14v7.51l-4.95,2.72-4.93,2.73v-7.51l3.27-1.8Z"/><path class="h" d="M1283.855,517.05l-26.7,15.35v11.63l-4.49,2.62V535.03L1222,552.83l-.01.01"/><path class="j" d="M1267.535,669.15c1.03,3.54.84,7.16.54,10.79v.01l-5.91.85v-.01c.29-3.65.49-7.29-.55-10.85-.69-2.39-1.7-4.59-2-7.05q3.09-.03,6-.25A57.46,57.46,0,0,0,1267.535,669.15Z"/><path class="j" d="M1253.755,662.78c1.57.08,3.19.12,4.83.12.35,0,.69,0,1.03-.01.3,2.46,1.31,4.66,2,7.05,1.04,3.56.84,7.2.55,10.85v.01l-3.57.52,4.76,3.74c-1.56.11-3.15.15-4.77.15-.88,0-1.74-.02-2.6-.05.27-5.1,1.23-10.24-.21-15.22C1255.075,667.52,1254.035,665.27,1253.755,662.78Z"/><path class="g" d="M1282.055,639.58a3.6,3.6,0,0,1,1.77,2.75"/><path class="g" d="M1233.355,642.33c0-1.51,1.51-2.92,4.11-4.09"/><path class="g" d="M1283.365,643.78a4.661,4.661,0,0,1-.35.46,2.365,2.365,0,0,1-.27.28"/><path class="g" d="M1233.865,647.68a4.789,4.789,0,0,0,.63.76"/><path class="g" d="M1233.355,658.84c-4.17-1.76-6.65-3.97-6.65-6.37s2.48-4.61,6.65-6.35"/><path class="g" d="M1281.165,659.83c-.89.28-1.83.56-2.83.81"/><path class="g" d="M1283.825,646.12c4.16,1.74,6.64,3.96,6.64,6.35,0,1.8-1.38,3.48-3.83,4.95"/><line class="g" y1="0.32" transform="translate(1233.355 642.01)"/><path class="g" d="M1283.825,642.33v3.81c0,4.14-11.3,8.26-25.24,8.26-11.32,0-20.88-2.71-24.09-5.96a4.381,4.381,0,0,1-.63-.76,2.8,2.8,0,0,1-.51-1.54v-3.81a2.913,2.913,0,0,0,.81,1.91,6.65,6.65,0,0,0,1.27,1.08c3.9,2.65,12.79,4.5,23.15,4.5s19.25-1.85,23.15-4.5a7.124,7.124,0,0,0,1.01-.8,3.443,3.443,0,0,0,.26-.28,4.811,4.811,0,0,0,.36-.46A2.693,2.693,0,0,0,1283.825,642.33Z"/><path class="g" d="M1237.465,631.15c0-1.51,4.91-2.74,10.97-2.74,6.04,0,10.95,1.23,10.95,2.74"/><path class="g" d="M1258.865,642.97c-1.4,1.1-5.54,1.9-10.43,1.9-6.06,0-10.97-1.23-10.97-2.74V631.15c0,1.51,4.91,2.74,10.97,2.74,6.04,0,10.95-1.23,10.95-2.74v2.74"/><path class="h" d="M1259.385,638.01v-4.12h18.9l3.77,4.12"/><path class="h" d="M1282.055,638.01v5.3h-22.87l-.32-.34a1.1,1.1,0,0,0,.52-.84v-4.12Z"/><path class="h" d="M1226.7,671.45c0-3.17,2.48-6.1,6.65-8.42"/><path class="h" d="M1239.215,660.74a75.649,75.649,0,0,0,14.54,2.04c1.57.08,3.19.12,4.83.12.35,0,.69,0,1.03-.01q3.09-.03,6-.25a72.111,72.111,0,0,0,12.72-2c1,.33,1.94.7,2.83,1.09"/><path class="h" d="M1286.635,664.9c2.45,1.95,3.83,4.17,3.83,6.55"/><path class="h" d="M1239.215,682.38a60.788,60.788,0,0,0,16.77,2.78c.86.03,1.72.05,2.6.05,1.62,0,3.21-.04,4.77-.15"/><path class="h" d="M1263.075,735.52l-.03,4.16c-1.45.09-2.95.14-4.46.14-16.49,0-29.85-5.77-29.85-12.89l-2.03-55.48c0,3.17,2.48,6.09,6.65,8.41"/><path class="h" d="M1286.635,677.99c.3-.24.58-.49.84-.74a6.143,6.143,0,0,0,.52-.5c.18-.18.34-.36.5-.53.22-.26.42-.52.61-.78a8.1,8.1,0,0,0,.77-1.36,5.129,5.129,0,0,0,.26-.67c.01-.03.02-.04.02-.05.07-.23.13-.46.18-.7s.08-.47.11-.72l-2.01,54.99c0,3.82-3.86,7.25-9.99,9.62"/><path class="h" d="M1279.805,681.72c.39-.16.78-.31,1.14-.47a1.478,1.478,0,0,0,.22-.1"/><line class="h" x1="0.02" y2="0.49" transform="translate(1290.445 671.45)"/><path class="h" d="M1274.955,733.8l-11.88,1.72.12-21.33.16-29.13-4.76-3.74,3.57-.52,5.91-.85,7.99-1.16"/><path class="h" d="M1279.805,681.72l-.89,35.77-.47,19.06-3.49-2.75.35-17.56.76-37.45Z"/><path class="g" d="M1239.215,660.74v21.64a32.877,32.877,0,0,1-5.86-2.52V658.84a39.16,39.16,0,0,0,5.48,1.8C1238.955,660.68,1239.085,660.7,1239.215,660.74Z"/><path class="g" d="M1286.635,657.42v20.57c-.03.02-.07.06-.11.09q-.33.255-.69.51c-.26.18-.52.35-.79.53a22.2,22.2,0,0,1-2.33,1.31c-.24.12-.5.25-.76.37s-.52.24-.79.35V659.83A26.068,26.068,0,0,0,1286.635,657.42Z"/><path class="h" d="M1253.755,662.78c.28,2.49,1.32,4.74,2.02,7.16,1.44,4.98.48,10.12.21,15.22"/><path class="h" d="M1259.615,662.88v.01c.3,2.46,1.31,4.66,2,7.05,1.04,3.56.84,7.2.55,10.85"/><path class="h" d="M1265.615,662.63v.01a57.46,57.46,0,0,0,1.92,6.51c1.03,3.54.84,7.16.54,10.79"/><path class="c" d="M926.532,426.245v-13.1l149.742,63.9V490.36"/><path class="c" d="M925.266,686.486v11.988l151.007,64.509V749.805"/><path class="c" d="M867.076,479.626v-100.6l249.545,107.163v67.141L1147,534.991"/><line class="c" y2="18.171" transform="translate(1262.401 597.946)"/><path class="c" d="M859.6,467.926v-100.6l265.7,113.732v36.332l99.464-58.5,70.79,42.031v36.262L1262.4,555.907v25.9"/><line class="c" y1="21.535" x2="35.273" transform="translate(1126.964 542.72)"/><path class="c" d="M1076.273,477.044l32.643,13.316v84.915l8.292-5.063"/><path class="c" d="M1165.249,592.784l-.039,12.878-11.423,8.383"/><path class="c" d="M1178.812,553.514l-13.452,8.15-.049,16.4"/><path class="c" d="M1173.984,651.926V575.292l21.743-13.675"/><path class="c" d="M1076.273,762.983l97.711-67.447V669.715"/><line class="c" y2="12.937" transform="translate(976.028 434.268)"/><line class="c" y2="13.437" transform="translate(1025.524 455.415)"/><line class="c" y2="12.937" transform="translate(976.028 707.221)"/><line class="c" y2="13.437" transform="translate(1025.524 727.819)"/><path class="f" d="M1119.1,559.95l10.31,7.219-10.31,7.218a3.66,3.66,0,0,0,5.072.924l8.433-5.9,3.067,2.147a4.434,4.434,0,1,0,1.866-1.755l-3.756-2.629,3.757-2.63a4.439,4.439,0,1,0-1.867-1.755l-3.066,2.147-8.434-5.905A3.66,3.66,0,0,0,1119.1,559.95Zm18.1.624a2.3,2.3,0,1,1,2.3,2.3A2.3,2.3,0,0,1,1137.209,560.574Zm0,13.189a2.3,2.3,0,1,1,2.3,2.3A2.3,2.3,0,0,1,1137.209,573.763Z"/><path class="f" d="M1161.757,577.739l10.31,7.219-10.31,7.218a3.66,3.66,0,0,0,5.072.924l8.433-5.9,3.067,2.147a4.434,4.434,0,1,0,1.866-1.755l-3.756-2.629,3.757-2.63a4.439,4.439,0,1,0-1.867-1.755l-3.066,2.147-8.434-5.9A3.66,3.66,0,0,0,1161.757,577.739Zm18.1.624a2.3,2.3,0,1,1,2.3,2.3A2.3,2.3,0,0,1,1179.861,578.363Zm0,13.189a2.3,2.3,0,1,1,2.3,2.3A2.3,2.3,0,0,1,1179.861,591.552Z"/><path class="f" d="M1170.876,653.6l10.31,7.219-10.31,7.219a3.659,3.659,0,0,0,5.072.923l8.433-5.9,3.067,2.148a4.434,4.434,0,1,0,1.866-1.755l-3.756-2.63,3.757-2.63a4.438,4.438,0,1,0-1.867-1.755l-3.066,2.148-8.434-5.905A3.659,3.659,0,0,0,1170.876,653.6Zm18.1.625a2.3,2.3,0,1,1,2.3,2.3A2.3,2.3,0,0,1,1188.98,654.226Zm0,13.188a2.3,2.3,0,1,1,2.3,2.3A2.3,2.3,0,0,1,1188.98,667.414Z"/><path class="f" d="M1259.389,582.032l10.31,7.219-10.31,7.219a3.659,3.659,0,0,0,5.072.923l8.434-5.905,3.066,2.148a4.435,4.435,0,1,0,1.867-1.755l-3.756-2.63,3.756-2.63a4.439,4.439,0,1,0-1.866-1.755l-3.067,2.148-8.434-5.9A3.659,3.659,0,0,0,1259.389,582.032Zm18.1.625a2.3,2.3,0,1,1,2.3,2.3A2.3,2.3,0,0,1,1277.493,582.657Zm0,13.188a2.3,2.3,0,1,1,2.3,2.3A2.3,2.3,0,0,1,1277.493,595.845Z"/><path class="k" d="M1147.36,566.109h61.347V747.079"/><line class="k" x1="19.727" transform="translate(1188.98 584.957)"/><line class="k" x1="9.863" transform="translate(1198.843 660.635)"/><path class="k" d="M1290.441,589.251h5.117v33.826h-86.665"/></g></g></svg>