<svg xmlns="http://www.w3.org/2000/svg" width="158" height="135" viewBox="0 0 158 135"><defs><style>.a,.d{fill:#fff;}.a{opacity:0.25;}.b{fill:#e74d4d;}.c,.f{fill:none;}.c{stroke:#e74d4d;stroke-width:2px;}.e{stroke:none;}</style></defs><g transform="translate(-436 -1125)"><g transform="translate(-47 31)"><circle class="a" cx="60" cy="60" r="60" transform="translate(501 1099)"/><path class="b" d="M-7176.5,10V6.5h-3.5v-3h3.5V0h3V3.5h3.5v3h-3.5V10Z" transform="translate(7801.5 1094)"/><path class="b" d="M-7174.4,16V10.4h-5.6V5.6h5.6V0h4.8V5.6h5.6v4.8h-5.6V16Z" transform="translate(7673.5 1213)"/><circle cx="3" cy="3" r="3" transform="translate(509 1104)"/><g class="c" transform="translate(483 1154)"><circle class="e" cx="5" cy="5" r="5"/><circle class="f" cx="5" cy="5" r="4"/></g><g class="c" transform="translate(627 1164)"><circle class="e" cx="7" cy="7" r="7"/><circle class="f" cx="7" cy="7" r="6"/></g><circle cx="2" cy="2" r="2" transform="translate(619 1209)"/></g><g transform="translate(-192.454 1046.811)"><g transform="translate(668.387 100.451)"><g transform="translate(0 0)"><path d="M770.3,200.451l-.759-.567-.356-.132a61.415,61.415,0,0,1-20.277-12.111,50.365,50.365,0,0,1-11.6-15.4,53.6,53.6,0,0,1-5.106-23.509V102.175l2.439,1.949a24.6,24.6,0,0,1,2.465,2.425c2.849,3.055,6.395,6.856,13.006,6.856,7.365,0,11.81-4.619,15.731-8.693a42.88,42.88,0,0,1,3.51-3.395l1.057-.865.961.971c.735.743,1.437,1.464,2.114,2.161,5.752,5.914,9.553,9.821,17.01,9.821,6.6,0,10.164-3.817,13.032-6.885a24.593,24.593,0,0,1,2.439-2.4l2.439-1.949v46.561a53.581,53.581,0,0,1-5.106,23.5,50.38,50.38,0,0,1-11.6,15.4,61.456,61.456,0,0,1-20.277,12.116l-.356.132Zm-35.1-91.538v39.823c0,31.9,24.49,44.331,35.018,48.2l.08.029.08-.029c10.529-3.87,35.019-16.313,35.019-48.2V108.911c-2.919,3.111-7.291,7.5-14.907,7.5-8.726,0-13.1-4.5-19.163-10.73q-.54-.555-1.1-1.13c-.709.67-1.453,1.443-2.225,2.246-3.9,4.057-9.252,9.614-17.895,9.614C742.457,116.407,738.105,112.015,735.2,108.913Z" transform="translate(-732.2 -100.451)"/></g></g><g transform="translate(653.642 118.526)"><path d="M662.961,243.724l-9.318-11.451,2.329-1.9,3.986,4.9V196.753h3Z" transform="translate(-653.642 -196.753)"/></g><g transform="translate(679.649 116.727)"><g transform="translate(0 0)"><path d="M818.816,258.784l-.613-.491-.32-.15a47.719,47.719,0,0,1-14.22-9.985c-7.607-7.848-11.464-17.59-11.464-28.958V194.707l4.653.345c10.567.76,16.436-3.9,19.59-6.4a20.763,20.763,0,0,1,1.684-1.257l.367-.231h.434a1.558,1.558,0,0,1,1.162.518c.2.148.43.337.72.574a27.752,27.752,0,0,0,20.418,6.8l4.653-.345v24.529c0,6.44-1.887,28.3-26.228,39.175ZM795.2,197.941V219.2c0,22.532,16.611,32.783,23.86,36.179,22.089-10.232,23.815-30.216,23.814-36.143v-21.3l-1.432.106a30.573,30.573,0,0,1-22.536-7.464l-.032-.026c-.178.139-.368.29-.568.449a29.091,29.091,0,0,1-19.21,7.131q-1.194,0-2.465-.09Z" transform="translate(-792.2 -187.165)"/></g></g><g transform="translate(690.96 128.572)"><path class="d" d="M870.479,294.259l-4.515-13.546h-13.5l13.043-30.439,4.515,13.546h13.5Z" transform="translate(-852.465 -250.274)"/></g><rect width="3.054" height="3.054" transform="translate(659.891 112.945)"/><rect width="3.054" height="3.054" transform="translate(659.891 107.365)"/><rect width="3.054" height="3.054" transform="translate(659.891 107.365)"/><rect width="3.054" height="3.054" transform="translate(659.891 101.784)"/><g transform="translate(750.442 101.01)"><path d="M1172.382,150.4h-3V103.427l9.319,11.451-2.329,1.9-3.986-4.9Z" transform="translate(-1169.378 -103.427)"/></g><rect width="3.054" height="3.054" transform="translate(753.512 153.562) rotate(180)"/><rect width="3.054" height="3.054" transform="translate(753.512 159.143) rotate(180)"/><rect width="3.054" height="3.054" transform="translate(753.512 159.143) rotate(180)"/><rect width="3.054" height="3.054" transform="translate(753.512 164.723) rotate(180)"/></g></g></svg>