<svg xmlns="http://www.w3.org/2000/svg" width="320" height="71.379" viewBox="0 0 320 71.379">
  <g id="Group_2049" data-name="Group 2049" transform="translate(-1101.695 -494.647)">
    <path id="Path_25683" data-name="Path 25683" d="M1140.745,527.372a3.746,3.746,0,0,0,0-7.492h-22.687a8.871,8.871,0,1,1,0-17.742h26.276l-7.492-7.492h-18.785a16.363,16.363,0,1,0,0,32.725Z" fill="#d3001b"/>
    <path id="Path_25684" data-name="Path 25684" d="M1149.43,514.843h-22.686a3.746,3.746,0,0,0,0,7.492h22.686a8.871,8.871,0,0,1,0,17.742h-26.276l7.491,7.491h18.785a16.363,16.363,0,1,0,0-32.725Z" transform="translate(-8.004 -7.588)" fill="#030504"/>
    <path id="Path_25685" data-name="Path 25685" d="M1331.793,515.636h-9.711l-9.239,10.383V505.192h-8.634V543.9h8.634v-8.416l2.548-2.512,7.318,10.928h9.511l-11.2-16.056Z" transform="translate(-76.086 -3.962)" fill="#030504"/>
    <path id="Path_25686" data-name="Path 25686" d="M1487.025,539.361h-18.317a8.871,8.871,0,1,1,0-17.742h21.907l-7.491-7.492h-14.415a16.363,16.363,0,1,0,0,32.725h18.317a3.746,3.746,0,1,0,0-7.491Z" transform="translate(-131.741 -7.319)" fill="#030504"/>
    <path id="Path_25687" data-name="Path 25687" d="M1211.562,516.035a16.381,16.381,0,1,0,16.381,16.381A16.4,16.4,0,0,0,1211.562,516.035Zm0,25.271a8.89,8.89,0,1,1,8.889-8.89A8.9,8.9,0,0,1,1211.562,541.306Z" transform="translate(-35.124 -8.036)" fill="#030504"/>
    <path id="Path_25688" data-name="Path 25688" d="M1533.447,513.668a16.646,16.646,0,1,0,0,33.293v-7.492a9.155,9.155,0,1,1,9.155-9.155v16.438h7.491V530.315A16.666,16.666,0,0,0,1533.447,513.668Z" transform="translate(-155.958 -7.146)" fill="#030504"/>
    <path id="Path_25689" data-name="Path 25689" d="M1365.615,516.035a16.381,16.381,0,1,0,0,32.762v-7.492a8.9,8.9,0,0,1-8.061-5.144H1382v-3.746A16.4,16.4,0,0,0,1365.615,516.035Zm-8.061,12.635a8.889,8.889,0,0,1,16.123,0Z" transform="translate(-93.002 -8.036)" fill="#030504"/>
    <path id="Path_25690" data-name="Path 25690" d="M1267.745,523.527a8.871,8.871,0,0,1,5.958,2.292l5.023-5.557a16.381,16.381,0,1,0,0,24.311l-5.023-5.557a8.89,8.89,0,1,1-5.958-15.487Z" transform="translate(-56.232 -8.036)" fill="#030504"/>
    <path id="Path_25691" data-name="Path 25691" d="M1417.756,505.511h-8.122v7.3h-3.376v6.243h3.376V543.6h8.122V519.052h7.546v-6.243h-7.546Z" transform="translate(-114.426 -4.082)" fill="#030504"/>
    <path id="Path_25692" data-name="Path 25692" d="M1590.7,513.685a15.156,15.156,0,0,0-15.139,15.139v17.81h7.491v-17.81a7.656,7.656,0,0,1,7.648-7.648h6.586v-7.491Z" transform="translate(-176.034 -7.153)" fill="#030504"/>
    <circle id="Ellipse_2414" data-name="Ellipse 2414" cx="5.547" cy="5.547" r="5.547" transform="translate(1335.635 520.005) rotate(-22.5)" fill="#d3001b"/>
    <g id="Group_2039" data-name="Group 2039" transform="translate(1116.302 550.873)">
      <path id="Path_25693" data-name="Path 25693" d="M1131.538,591.761a2.769,2.769,0,0,0,1.3-.955,2.406,2.406,0,0,0,.469-1.456,2.84,2.84,0,0,0-1.119-2.449,5.188,5.188,0,0,0-3.112-.819h-3.984v11.983h4.519a4.769,4.769,0,0,0,3.045-.877,3.078,3.078,0,0,0,1.1-2.563,3.031,3.031,0,0,0-.576-1.835A2.67,2.67,0,0,0,1131.538,591.761Zm-4.444-4.074h1.983a2.72,2.72,0,0,1,1.663.432,1.556,1.556,0,0,1,.567,1.321,1.519,1.519,0,0,1-.539,1.247,2.255,2.255,0,0,1-1.469.441h-2.206Zm4.115,8.3a2.408,2.408,0,0,1-1.6.473h-2.519v-3.844h2.741a1.871,1.871,0,0,1,1.465.526,2.147,2.147,0,0,1,.469,1.478A1.689,1.689,0,0,1,1131.209,595.988Z" transform="translate(-1125.093 -585.226)" fill="#1a1818"/>
      <path id="Path_25694" data-name="Path 25694" d="M1144.1,593.172a1.686,1.686,0,0,1,1.6-.818,1.644,1.644,0,0,1,1.255.51,1.743,1.743,0,0,1,.482,1.243h1.818l.017-.049a3.009,3.009,0,0,0-.968-2.375,4.16,4.16,0,0,0-5.62.338,4.863,4.863,0,0,0-1.05,3.206v.288a4.86,4.86,0,0,0,1.05,3.21,3.692,3.692,0,0,0,3.016,1.267,3.788,3.788,0,0,0,2.547-.905,2.632,2.632,0,0,0,1.016-2.156l-.017-.049h-1.81a1.359,1.359,0,0,1-.5,1.076,1.834,1.834,0,0,1-1.235.429,1.692,1.692,0,0,1-1.6-.809,4.075,4.075,0,0,1-.47-2.068v-.287A4.063,4.063,0,0,1,1144.1,593.172Z" transform="translate(-1131.307 -586.979)" fill="#1a1818"/>
      <path id="Path_25695" data-name="Path 25695" d="M1155.8,592.618h2.848v7.3h2v-7.3h2.9v-1.6H1155.8Z" transform="translate(-1136.629 -587.079)" fill="#1a1818"/>
      <path id="Path_25696" data-name="Path 25696" d="M1177.53,597.77v-3.959a2.779,2.779,0,0,0-.955-2.271,3.807,3.807,0,0,0-2.51-.79,4,4,0,0,0-2.605.815,2.209,2.209,0,0,0-.943,1.869l.009.049h1.926a1.045,1.045,0,0,1,.4-.848,1.669,1.669,0,0,1,1.087-.329,1.63,1.63,0,0,1,1.177.4,1.443,1.443,0,0,1,.412,1.094v.782h-1.556a4.926,4.926,0,0,0-2.872.72,2.323,2.323,0,0,0-1.021,2.012,2.6,2.6,0,0,0,.745,1.967,2.959,2.959,0,0,0,2.135.716,2.756,2.756,0,0,0,1.5-.424,3.536,3.536,0,0,0,1.082-1.05,4.824,4.824,0,0,0,.094.643c.047.213.106.433.177.658h2.025a5.535,5.535,0,0,1-.239-.992A7.3,7.3,0,0,1,1177.53,597.77Zm-2-.626a1.906,1.906,0,0,1-.8.864,2.515,2.515,0,0,1-1.361.378,1.374,1.374,0,0,1-.951-.3,1.036,1.036,0,0,1-.333-.81,1.315,1.315,0,0,1,.494-1.017,2.007,2.007,0,0,1,1.366-.432h1.589Z" transform="translate(-1141.995 -586.979)" fill="#1a1818"/>
      <path id="Path_25697" data-name="Path 25697" d="M1191.586,595.342a2.436,2.436,0,0,0,1.119-.745,1.725,1.725,0,0,0,.395-1.115,2.044,2.044,0,0,0-.984-1.848,5.15,5.15,0,0,0-2.753-.621h-3.613v8.9h4.181a4.536,4.536,0,0,0,2.621-.646,2.164,2.164,0,0,0,.926-1.9,1.88,1.88,0,0,0-.49-1.28A2.521,2.521,0,0,0,1191.586,595.342Zm-3.845-2.724h1.622a2.544,2.544,0,0,1,1.3.266.886.886,0,0,1,.435.812.815.815,0,0,1-.4.735,2.377,2.377,0,0,1-1.218.262h-1.738Zm3.351,5.436a1.957,1.957,0,0,1-1.161.284h-2.19v-2.214h2.19a1.9,1.9,0,0,1,1.168.292.973.973,0,0,1,.379.818A.955.955,0,0,1,1191.092,598.054Z" transform="translate(-1147.882 -587.079)" fill="#1a1818"/>
      <path id="Path_25698" data-name="Path 25698" d="M1203.222,596.93l-.049-.016v-5.9h-1.992v8.905h1.992l3.44-5.926.049.016v5.909h1.992v-8.905h-1.992Z" transform="translate(-1153.68 -587.079)" fill="#1a1818"/>
      <path id="Path_25699" data-name="Path 25699" d="M1222.712,595.342a2.435,2.435,0,0,0,1.119-.745,1.73,1.73,0,0,0,.395-1.115,2.044,2.044,0,0,0-.984-1.848,5.15,5.15,0,0,0-2.753-.621h-3.613v8.9h4.181a4.537,4.537,0,0,0,2.621-.646,2.164,2.164,0,0,0,.926-1.9,1.88,1.88,0,0,0-.489-1.28A2.521,2.521,0,0,0,1222.712,595.342Zm-3.844-2.724h1.621a2.544,2.544,0,0,1,1.3.266.886.886,0,0,1,.435.812.817.817,0,0,1-.4.735,2.379,2.379,0,0,1-1.218.262h-1.738Zm3.351,5.436a1.956,1.956,0,0,1-1.161.284h-2.19v-2.214h2.19a1.9,1.9,0,0,1,1.168.292.973.973,0,0,1,.379.818A.954.954,0,0,1,1222.218,598.054Z" transform="translate(-1159.576 -587.079)" fill="#1a1818"/>
      <rect id="Rectangle_126" data-name="Rectangle 126" width="2" height="1.753" transform="translate(71.447 0)" fill="#1a1818"/>
      <rect id="Rectangle_127" data-name="Rectangle 127" width="2" height="8.905" transform="translate(71.447 3.934)" fill="#1a1818"/>
      <path id="Path_25700" data-name="Path 25700" d="M1253.564,599.918h2v-7.3h3.473v7.3h2v-8.905h-7.473Z" transform="translate(-1173.361 -587.079)" fill="#1a1818"/>
      <path id="Path_25701" data-name="Path 25701" d="M1272.635,590.749a3.746,3.746,0,0,0-2.988,1.275,4.852,4.852,0,0,0-1.086,3.259v.173a4.844,4.844,0,0,0,1.086,3.268,4.183,4.183,0,0,0,5.991.008,4.831,4.831,0,0,0,1.1-3.276v-.173a4.809,4.809,0,0,0-1.1-3.259A3.733,3.733,0,0,0,1272.635,590.749Zm2.107,4.7a3.868,3.868,0,0,1-.527,2.121,1.926,1.926,0,0,1-3.144,0,3.968,3.968,0,0,1-.51-2.121v-.172a3.945,3.945,0,0,1,.51-2.1,1.9,1.9,0,0,1,3.144,0,3.819,3.819,0,0,1,.527,2.1Z" transform="translate(-1178.995 -586.979)" fill="#1a1818"/>
      <rect id="Rectangle_128" data-name="Rectangle 128" width="1.983" height="1.679" transform="translate(97.817 0.807)" fill="#1a1818"/>
      <rect id="Rectangle_129" data-name="Rectangle 129" width="2" height="8.905" transform="translate(99.775 3.934)" fill="#1a1818"/>
      <rect id="Rectangle_130" data-name="Rectangle 130" width="1.992" height="1.679" transform="translate(101.792 0.807)" fill="#1a1818"/>
      <path id="Path_25702" data-name="Path 25702" d="M1298.745,591.013h-2.3l-1.646,3.053-1.622-3.053h-2.272l2.8,4.4-2.88,4.5h2.287l1.721-3.128,1.72,3.128h2.271l-2.881-4.5Z" transform="translate(-1187.36 -587.079)" fill="#1a1818"/>
      <path id="Path_25703" data-name="Path 25703" d="M1312.876,597.77v-3.959a2.778,2.778,0,0,0-.955-2.271,3.806,3.806,0,0,0-2.51-.79,4,4,0,0,0-2.605.815,2.206,2.206,0,0,0-.943,1.869l.009.049h1.926a1.044,1.044,0,0,1,.4-.848,1.668,1.668,0,0,1,1.086-.329,1.631,1.631,0,0,1,1.178.4,1.443,1.443,0,0,1,.411,1.094v.782h-1.556a4.926,4.926,0,0,0-2.872.72,2.323,2.323,0,0,0-1.02,2.012,2.6,2.6,0,0,0,.745,1.967,2.959,2.959,0,0,0,2.135.716,2.752,2.752,0,0,0,1.5-.424,3.538,3.538,0,0,0,1.083-1.05,4.726,4.726,0,0,0,.094.643c.047.213.106.433.177.658h2.025a5.564,5.564,0,0,1-.238-.992A7.181,7.181,0,0,1,1312.876,597.77Zm-2-.626a1.907,1.907,0,0,1-.8.864,2.517,2.517,0,0,1-1.362.378,1.372,1.372,0,0,1-.951-.3,1.037,1.037,0,0,1-.332-.81,1.314,1.314,0,0,1,.494-1.017,2,2,0,0,1,1.365-.432h1.589Z" transform="translate(-1192.846 -586.979)" fill="#1a1818"/>
      <path id="Path_25704" data-name="Path 25704" d="M1326.932,595.342a2.434,2.434,0,0,0,1.12-.745,1.727,1.727,0,0,0,.4-1.115,2.044,2.044,0,0,0-.984-1.848,5.152,5.152,0,0,0-2.753-.621H1321.1v8.9h4.181a4.539,4.539,0,0,0,2.622-.646,2.165,2.165,0,0,0,.926-1.9,1.878,1.878,0,0,0-.49-1.28A2.518,2.518,0,0,0,1326.932,595.342Zm-3.844-2.724h1.621a2.542,2.542,0,0,1,1.3.266.886.886,0,0,1,.436.812.816.816,0,0,1-.4.735,2.381,2.381,0,0,1-1.219.262h-1.737Zm3.35,5.436a1.955,1.955,0,0,1-1.161.284h-2.189v-2.214h2.189a1.906,1.906,0,0,1,1.169.292.974.974,0,0,1,.378.818A.954.954,0,0,1,1326.438,598.054Z" transform="translate(-1198.733 -587.079)" fill="#1a1818"/>
      <path id="Path_25705" data-name="Path 25705" d="M1336.154,603.769l-.576,2.642h1.268l1.275-2.568v-1.7h-1.967Z" transform="translate(-1204.173 -591.259)" fill="#1a1818"/>
      <path id="Path_25706" data-name="Path 25706" d="M1355.849,595.342a2.432,2.432,0,0,0,1.119-.745,1.727,1.727,0,0,0,.4-1.115,2.044,2.044,0,0,0-.984-1.848,5.151,5.151,0,0,0-2.753-.621h-3.613v8.9h4.181a4.538,4.538,0,0,0,2.621-.646,2.165,2.165,0,0,0,.926-1.9,1.878,1.878,0,0,0-.49-1.28A2.516,2.516,0,0,0,1355.849,595.342Zm-3.844-2.724h1.621a2.541,2.541,0,0,1,1.3.266.886.886,0,0,1,.436.812.817.817,0,0,1-.4.735,2.381,2.381,0,0,1-1.219.262h-1.737Zm3.35,5.436a1.954,1.954,0,0,1-1.16.284h-2.189v-2.214h2.189a1.906,1.906,0,0,1,1.169.292.975.975,0,0,1,.378.818A.954.954,0,0,1,1355.355,598.054Z" transform="translate(-1209.597 -587.079)" fill="#1a1818"/>
      <path id="Path_25707" data-name="Path 25707" d="M1367.486,596.93l-.049-.016v-5.9h-1.992v8.905h1.992l3.44-5.926.049.016v5.909h1.992v-8.905h-1.992Z" transform="translate(-1215.395 -587.079)" fill="#1a1818"/>
      <path id="Path_25708" data-name="Path 25708" d="M1385.435,587.29a2.8,2.8,0,0,0,1.925-.634,2,2,0,0,0,.684-1.646l-.025-.05h-1.489a1.133,1.133,0,0,1-.272.782,1.281,1.281,0,0,1-1.659,0,1.144,1.144,0,0,1-.268-.782h-1.481l-.024.05a1.98,1.98,0,0,0,.675,1.646A2.814,2.814,0,0,0,1385.435,587.29Z" transform="translate(-1221.924 -584.805)" fill="#1a1818"/>
      <path id="Path_25709" data-name="Path 25709" d="M1383.049,596.93l-.05-.016v-5.9h-1.992v8.905H1383l3.44-5.926.049.016v5.909h1.992v-8.905h-1.992Z" transform="translate(-1221.242 -587.079)" fill="#1a1818"/>
      <path id="Path_25710" data-name="Path 25710" d="M1402.036,594.725h-3.465v-3.712h-2v8.905h2V596.33h3.465v3.589h2v-8.905h-2Z" transform="translate(-1227.089 -587.079)" fill="#1a1818"/>
      <path id="Path_25711" data-name="Path 25711" d="M1412.692,591.812a2.672,2.672,0,0,0-.527,3.526,2.733,2.733,0,0,0,1.263.984l-2.1,3.6h2.074l1.9-3.267h1.868v3.267h1.993v-8.9h-3.836A4.015,4.015,0,0,0,1412.692,591.812Zm4.48,3.357h-1.95a1.547,1.547,0,0,1-1.115-.368,1.182,1.182,0,0,1-.383-.883,1.222,1.222,0,0,1,.407-.912,1.673,1.673,0,0,1,1.2-.389h1.844Z" transform="translate(-1232.634 -587.079)" fill="#1a1818"/>
      <path id="Path_25712" data-name="Path 25712" d="M1433.665,595.342a2.437,2.437,0,0,0,1.12-.745,1.727,1.727,0,0,0,.4-1.115,2.045,2.045,0,0,0-.985-1.848,5.148,5.148,0,0,0-2.753-.621h-3.613v8.9h4.181a4.54,4.54,0,0,0,2.622-.646,2.165,2.165,0,0,0,.925-1.9,1.879,1.879,0,0,0-.49-1.28A2.519,2.519,0,0,0,1433.665,595.342Zm-3.844-2.724h1.621a2.542,2.542,0,0,1,1.3.266.886.886,0,0,1,.436.812.816.816,0,0,1-.4.735,2.377,2.377,0,0,1-1.218.262h-1.737Zm3.35,5.436a1.956,1.956,0,0,1-1.161.284h-2.189v-2.214h2.189a1.905,1.905,0,0,1,1.169.292.973.973,0,0,1,.379.818A.955.955,0,0,1,1433.171,598.054Z" transform="translate(-1238.833 -587.079)" fill="#1a1818"/>
      <path id="Path_25713" data-name="Path 25713" d="M1452.129,593.172a1.687,1.687,0,0,1,1.6-.818,1.647,1.647,0,0,1,1.255.51,1.744,1.744,0,0,1,.481,1.243h1.818l.018-.049a3.012,3.012,0,0,0-.968-2.375,4.161,4.161,0,0,0-5.621.338,4.867,4.867,0,0,0-1.049,3.206v.288a4.864,4.864,0,0,0,1.049,3.21,3.693,3.693,0,0,0,3.016,1.267,3.787,3.787,0,0,0,2.548-.905,2.63,2.63,0,0,0,1.016-2.156l-.017-.049h-1.81a1.358,1.358,0,0,1-.5,1.076,1.834,1.834,0,0,1-1.235.429,1.693,1.693,0,0,1-1.6-.809,4.077,4.077,0,0,1-.47-2.068v-.287A4.065,4.065,0,0,1,1452.129,593.172Z" transform="translate(-1247.035 -586.979)" fill="#1a1818"/>
      <path id="Path_25714" data-name="Path 25714" d="M1464.7,599.918h2v-7.3h3.473v7.3h2v-8.905H1464.7Z" transform="translate(-1252.684 -587.079)" fill="#1a1818"/>
      <path id="Path_25715" data-name="Path 25715" d="M1482.3,596.93l-.049-.016v-5.9h-1.992v8.905h1.992l3.44-5.926.049.016v5.909h1.992v-8.905h-1.992Z" transform="translate(-1258.531 -587.079)" fill="#1a1818"/>
      <path id="Path_25716" data-name="Path 25716" d="M1504.692,593.172a1.686,1.686,0,0,1,1.6-.818,1.647,1.647,0,0,1,1.256.51,1.744,1.744,0,0,1,.482,1.243h1.819l.017-.049a3.009,3.009,0,0,0-.967-2.375,4.162,4.162,0,0,0-5.621.338,4.867,4.867,0,0,0-1.049,3.206v.288a4.864,4.864,0,0,0,1.049,3.21,3.694,3.694,0,0,0,3.016,1.267,3.785,3.785,0,0,0,2.548-.905,2.63,2.63,0,0,0,1.016-2.156l-.016-.049h-1.81a1.36,1.36,0,0,1-.5,1.076,1.835,1.835,0,0,1-1.236.429,1.692,1.692,0,0,1-1.6-.809,4.078,4.078,0,0,1-.469-2.068v-.287A4.066,4.066,0,0,1,1504.692,593.172Z" transform="translate(-1266.783 -586.979)" fill="#1a1818"/>
      <path id="Path_25717" data-name="Path 25717" d="M1517.258,599.918h2v-7.3h3.473v7.3h2v-8.905h-7.473Z" transform="translate(-1272.432 -587.079)" fill="#1a1818"/>
      <path id="Path_25718" data-name="Path 25718" d="M1536.327,590.749a3.747,3.747,0,0,0-2.988,1.275,4.852,4.852,0,0,0-1.086,3.259v.173a4.844,4.844,0,0,0,1.086,3.268,4.184,4.184,0,0,0,5.992.008,4.831,4.831,0,0,0,1.095-3.276v-.173a4.809,4.809,0,0,0-1.095-3.259A3.735,3.735,0,0,0,1536.327,590.749Zm2.107,4.7a3.87,3.87,0,0,1-.526,2.121,1.926,1.926,0,0,1-3.145,0,3.967,3.967,0,0,1-.51-2.121v-.172a3.943,3.943,0,0,1,.51-2.1,1.9,1.9,0,0,1,3.145,0,3.821,3.821,0,0,1,.526,2.1Z" transform="translate(-1278.065 -586.979)" fill="#1a1818"/>
      <path id="Path_25719" data-name="Path 25719" d="M1556.405,591.013h-2.477l-2.453,3.556h-.889v-3.556h-1.992v8.905h1.992V596.4h1.021l2.469,3.523h2.6l-3.5-4.642Z" transform="translate(-1284.205 -587.079)" fill="#1a1818"/>
      <rect id="Rectangle_131" data-name="Rectangle 131" width="2" height="1.753" transform="translate(273.751 0)" fill="#1a1818"/>
      <rect id="Rectangle_132" data-name="Rectangle 132" width="2" height="8.905" transform="translate(273.751 3.934)" fill="#1a1818"/>
      <path id="Path_25720" data-name="Path 25720" d="M1572.665,596.93l-.05-.016v-5.9h-1.992v8.905h1.992l3.441-5.926.049.016v5.909h1.991v-8.905h-1.991Z" transform="translate(-1292.482 -587.079)" fill="#1a1818"/>
      <path id="Path_25721" data-name="Path 25721" d="M1575.051,587.29a2.8,2.8,0,0,0,1.925-.634,2,2,0,0,0,.683-1.646l-.025-.05h-1.489a1.134,1.134,0,0,1-.272.782,1.281,1.281,0,0,1-1.659,0,1.143,1.143,0,0,1-.268-.782h-1.481l-.025.05a1.98,1.98,0,0,0,.675,1.646A2.814,2.814,0,0,0,1575.051,587.29Z" transform="translate(-1293.164 -584.805)" fill="#1a1818"/>
      <path id="Path_25722" data-name="Path 25722" d="M1591.651,594.725h-3.465v-3.712h-2v8.905h2V596.33h3.465v3.589h2v-8.905h-2Z" transform="translate(-1298.329 -587.079)" fill="#1a1818"/>
      <path id="Path_25723" data-name="Path 25723" d="M1608.261,592.024a4.157,4.157,0,0,0-5.992,0,4.853,4.853,0,0,0-1.086,3.259v.173a4.845,4.845,0,0,0,1.086,3.268,4.184,4.184,0,0,0,5.992.008,4.833,4.833,0,0,0,1.095-3.276v-.173A4.812,4.812,0,0,0,1608.261,592.024Zm-.9,3.428a3.866,3.866,0,0,1-.527,2.121,1.926,1.926,0,0,1-3.144,0,3.968,3.968,0,0,1-.51-2.121v-.172a3.945,3.945,0,0,1,.51-2.1,1.9,1.9,0,0,1,3.144,0,3.817,3.817,0,0,1,.527,2.1Z" transform="translate(-1303.963 -586.979)" fill="#1a1818"/>
    </g>
  </g>
</svg>
