<svg xmlns="http://www.w3.org/2000/svg" width="319.556" height="74" viewBox="0 0 319.556 74"><defs><style>.a{fill:#d3001b;}.b{fill:#030504;}.c{font-size:16px;font-family:Roboto-Medium, Roboto;font-weight:500;letter-spacing:-0.05em;}</style></defs><g transform="translate(-800 -592)"><path class="a" d="M1140.745,527.372a3.746,3.746,0,0,0,0-7.492h-22.687a8.871,8.871,0,1,1,0-17.742h26.276l-7.492-7.492h-18.785a16.363,16.363,0,1,0,0,32.725Z" transform="translate(-301.695 97.353)"/><path class="b" d="M1149.43,514.843h-22.686a3.746,3.746,0,0,0,0,7.492h22.686a8.871,8.871,0,0,1,0,17.742h-26.276l7.491,7.491h18.785a16.363,16.363,0,1,0,0-32.725Z" transform="translate(-309.698 89.765)"/><path class="b" d="M1331.793,515.636h-9.711l-9.239,10.383V505.192h-8.634V543.9h8.634v-8.416l2.548-2.512,7.318,10.928h9.511l-11.2-16.056Z" transform="translate(-377.781 93.391)"/><path class="b" d="M1487.025,539.361h-18.317a8.871,8.871,0,1,1,0-17.742h21.907l-7.491-7.492h-14.415a16.363,16.363,0,1,0,0,32.725h18.317a3.746,3.746,0,1,0,0-7.491Z" transform="translate(-433.436 90.034)"/><path class="b" d="M1211.562,516.035a16.381,16.381,0,1,0,16.381,16.381A16.4,16.4,0,0,0,1211.562,516.035Zm0,25.271a8.89,8.89,0,1,1,8.889-8.89A8.9,8.9,0,0,1,1211.562,541.306Z" transform="translate(-336.819 89.317)"/><path class="b" d="M1533.447,513.668a16.646,16.646,0,1,0,0,33.293v-7.492a9.155,9.155,0,1,1,9.155-9.155v16.438h7.491V530.315A16.666,16.666,0,0,0,1533.447,513.668Z" transform="translate(-457.652 90.207)"/><path class="b" d="M1365.615,516.035a16.381,16.381,0,1,0,0,32.762v-7.492a8.9,8.9,0,0,1-8.061-5.144H1382v-3.746A16.4,16.4,0,0,0,1365.615,516.035Zm-8.061,12.635a8.889,8.889,0,0,1,16.123,0Z" transform="translate(-394.697 89.317)"/><path class="b" d="M1267.745,523.527a8.871,8.871,0,0,1,5.958,2.292l5.023-5.557a16.381,16.381,0,1,0,0,24.311l-5.023-5.557a8.89,8.89,0,1,1-5.958-15.487Z" transform="translate(-357.927 89.317)"/><path class="b" d="M1417.756,505.511h-8.122v7.3h-3.376v6.243h3.376V543.6h8.122V519.052h7.546v-6.243h-7.546Z" transform="translate(-416.121 93.271)"/><path class="b" d="M1590.7,513.685a15.156,15.156,0,0,0-15.139,15.139v17.81h7.491v-17.81a7.656,7.656,0,0,1,7.648-7.648h6.586v-7.491Z" transform="translate(-477.729 90.2)"/><circle class="a" cx="5.547" cy="5.547" r="5.547" transform="translate(1033.94 617.358) rotate(-22.5)"/><text class="c" transform="translate(856 662)"><tspan x="0" y="0">Безпека. Надійність. Комфорт</tspan></text></g></svg>