<svg xmlns="http://www.w3.org/2000/svg" width="19.543" height="16" viewBox="0 0 19.543 16"><path d="M19.1,29.944a7.408,7.408,0,0,1-.945.344,4.178,4.178,0,0,0,.851-1.5.315.315,0,0,0-.461-.367,7.438,7.438,0,0,1-2.2.869,4.2,4.2,0,0,0-7.132,3,4.28,4.28,0,0,0,.034.542,10.74,10.74,0,0,1-7.372-3.911.315.315,0,0,0-.517.04,4.2,4.2,0,0,0,.43,4.829,3.553,3.553,0,0,1-.561-.251.315.315,0,0,0-.468.268c0,.019,0,.037,0,.056a4.21,4.21,0,0,0,2.054,3.608c-.107-.011-.213-.026-.319-.046a.315.315,0,0,0-.359.406,4.194,4.194,0,0,0,3.073,2.812,7.422,7.422,0,0,1-3.967,1.132,7.59,7.59,0,0,1-.889-.052.315.315,0,0,0-.207.578A11.314,11.314,0,0,0,6.261,44.1a10.884,10.884,0,0,0,8.433-3.7,11.739,11.739,0,0,0,2.922-7.651c0-.115,0-.231-.005-.347a8.155,8.155,0,0,0,1.877-1.988.315.315,0,0,0-.39-.463Z" transform="translate(0.002 -28.097)"/></svg>