<svg xmlns="http://www.w3.org/2000/svg" width="161" height="23.235" viewBox="0 0 161 23.235"><defs><style>.a{fill:#fff;}.b{fill:#df1111;}</style></defs><g transform="translate(-390 -62)"><path class="a" d="M1121.37,511.136a1.887,1.887,0,0,0,0-3.775h-11.431a4.47,4.47,0,0,1,0-8.94h13.239l-3.774-3.775h-9.465a8.244,8.244,0,1,0,0,16.489Z" transform="translate(-711.695 -432.647)"/><path class="a" d="M1136.316,514.843h-11.43a1.887,1.887,0,1,0,0,3.775h11.43a4.47,4.47,0,1,1,0,8.94h-13.239l3.775,3.774h9.465a8.244,8.244,0,1,0,0-16.489Z" transform="translate(-726.297 -446.49)"/><path class="a" d="M1318.107,510.454h-4.893l-4.655,5.231V505.192h-4.35v19.5h4.35v-4.24l1.284-1.266,3.687,5.506h4.792l-5.644-8.09Z" transform="translate(-850.508 -439.875)"/><path class="a" d="M1469.818,526.841h-9.229a4.47,4.47,0,0,1,0-8.94h11.038l-3.774-3.775h-7.263a8.244,8.244,0,1,0,0,16.489h9.229a1.887,1.887,0,1,0,0-3.775Z" transform="translate(-952.048 -446)"/><path class="a" d="M1203.435,516.035a8.254,8.254,0,1,0,8.254,8.253A8.263,8.263,0,0,0,1203.435,516.035Zm0,12.733a4.479,4.479,0,1,1,4.479-4.479A4.484,4.484,0,0,1,1203.435,528.768Z" transform="translate(-775.776 -447.307)"/><path class="a" d="M1525.187,513.668a8.387,8.387,0,0,0,0,16.775v-3.775a4.613,4.613,0,1,1,4.613-4.612v8.282h3.774v-8.282A8.4,8.4,0,0,0,1525.187,513.668Z" transform="translate(-996.229 -445.685)"/><path class="a" d="M1357.488,516.035a8.254,8.254,0,1,0,0,16.507v-3.775a4.485,4.485,0,0,1-4.062-2.592h12.315v-1.887A8.263,8.263,0,0,0,1357.488,516.035Zm-4.062,6.366a4.479,4.479,0,0,1,8.123,0Z" transform="translate(-881.37 -447.307)"/><path class="a" d="M1259.618,519.81a4.469,4.469,0,0,1,3,1.155l2.531-2.8a8.254,8.254,0,1,0,0,12.249l-2.531-2.8a4.479,4.479,0,1,1-3-7.8Z" transform="translate(-814.285 -447.307)"/><path class="a" d="M1412.051,505.511h-4.092v3.677h-1.7v3.146h1.7V524.7h4.092V512.333h3.8v-3.146h-3.8Z" transform="translate(-920.458 -440.094)"/><path class="a" d="M1583.189,513.685a7.636,7.636,0,0,0-7.628,7.628v8.974h3.775v-8.974a3.857,3.857,0,0,1,3.853-3.853h3.318v-3.775Z" transform="translate(-1035.507 -445.697)"/><circle class="b" cx="2.795" cy="2.795" r="2.795" transform="translate(507.871 74.777) rotate(-22.5)"/></g></svg>