<svg xmlns="http://www.w3.org/2000/svg" width="163" height="173" viewBox="0 0 163 173"><defs><style>.a{fill:#e74d4d;}.b,.d{fill:none;}.b{stroke:#e74d4d;stroke-width:2px;}.c{stroke:none;}</style></defs><g transform="translate(-1397 -4634)"><path class="a" d="M3.5,0V3.5H0v3H3.5V10h3V6.5H10v-3H6.5V0Z" transform="translate(1530 4676.001) rotate(180)"/><path class="a" d="M5.6,0V5.6H0v4.8H5.6V16h4.8V10.4H16V5.6H10.4V0Z" transform="translate(1470.5 4732) rotate(180)"/><circle cx="3" cy="3" r="3" transform="translate(1421 4746)"/><g class="b" transform="translate(1550 4634)"><circle class="c" cx="5" cy="5" r="5"/><circle class="d" cx="5" cy="5" r="4"/></g><g class="b" transform="translate(1494 4714)"><circle class="c" cx="5" cy="5" r="5"/><circle class="d" cx="5" cy="5" r="4"/></g><g class="b" transform="translate(1516 4739)"><circle class="c" cx="7" cy="7" r="7"/><circle class="d" cx="7" cy="7" r="6"/></g><g class="b" transform="translate(1397 4793)"><circle class="c" cx="7" cy="7" r="7"/><circle class="d" cx="7" cy="7" r="6"/></g><circle cx="2" cy="2" r="2" transform="translate(1504 4701)"/></g></svg>