<svg xmlns="http://www.w3.org/2000/svg" width="510.311" height="257.095" viewBox="0 0 510.311 257.095"><defs><style>.a{fill:#df1111;}</style></defs><path class="a" d="M2077.106,445.13a143.216,143.216,0,0,0-153.043-.1,11.113,11.113,0,0,1-17.11-9.337h0a11.056,11.056,0,0,1,5.189-9.4,167.918,167.918,0,0,1,161.175-8.56,7.47,7.47,0,0,0,9.8-3.24h0a7.506,7.506,0,0,0-3.362-10.308,183,183,0,0,0-157.017-.69,11.091,11.091,0,0,1-15.785-10.065v-2.084a11.069,11.069,0,0,1,6.374-10.054,206.6,206.6,0,0,1,87.126-19.166,211.182,211.182,0,0,1,21.112,1.06,7.477,7.477,0,0,0,8.124-6.457h0a7.519,7.519,0,0,0-6.738-8.479c-7.454-.747-14.992-1.124-22.5-1.124a222.735,222.735,0,0,0-78.567,14.2,11.086,11.086,0,0,1-14.933-10.423v-3.13a11.064,11.064,0,0,1,7.114-10.367,242.906,242.906,0,0,1,49.057-12.857,7.509,7.509,0,0,0,6.344-8.327h0a7.493,7.493,0,0,0-8.539-6.513,258.19,258.19,0,0,0-44.028,10.74,82.067,82.067,0,0,1-26.389,4.269H1615.953v242h291V478.471a128.233,128.233,0,0,1,205.3,24.757,7.479,7.479,0,0,0,9.832,3.023h0a7.51,7.51,0,0,0,3.208-10.426A143.74,143.74,0,0,0,2077.106,445.13Z" transform="translate(-1615.953 -309.618)"/></svg>